<svg width="1024" height="1024" viewBox="0 0 1024 1024" fill="none" xmlns="http://www.w3.org/2000/svg">
<path d="M263.329 267.389C268.977 260.466 281.751 248.368 288.591 242.345C326.772 208.433 372.243 183.758 421.485 170.23C507.755 146.535 599.91 158.278 677.48 202.85C737.32 237.467 785.02 289.703 814.08 352.431C819.49 364.167 825.75 379.475 829.16 391.966C822.875 393.751 816.02 395.685 809.865 397.794C797.25 359.781 780.845 328.096 755.74 296.564C704.255 231.979 629.375 190.306 547.35 180.589C464.028 170.786 380.248 194.739 314.7 247.104C249.608 299.061 207.81 374.737 198.494 457.5C190.379 528.02 206.492 599.2 244.186 659.345C252.842 673.195 260.939 683.705 271.082 696.345C327.893 658.735 407.302 632.59 475.453 629.22C475.786 634.08 476.213 641.205 473.875 645.435C462.701 665.66 426.191 651.975 405.359 657.52C380.629 664.1 373.35 691.665 354.508 696.695C344.591 699.345 309.267 695.845 297.629 698.02C296.309 698.27 296.034 699.55 295.696 700.54C295.982 701.565 295.944 702.19 296.983 702.815C301.74 705.675 322.608 704.69 327.522 703.98C321.579 709.235 310.24 720.785 305.791 728C305.197 728.965 305.712 730.09 306.11 731.005C306.777 731.405 307.204 731.865 307.866 731.63C315.454 728.89 323.855 715.28 331.172 709.95C343.268 701.13 349.052 706.45 360.253 702.16C366.247 699.86 374.572 690.855 378.862 686.32C379.035 693.39 379.757 701.235 377.07 708.15C375.908 711.145 366.043 718.185 369.786 722.015C370.198 722.435 371.282 722.88 371.941 722.825C374.337 722.635 376.008 720.185 377.613 718.62C392.767 704.415 379.378 685 390.038 674.035C405.903 657.72 427.728 663.715 447.675 663.605C457.984 663.545 468.526 662.195 475.969 654.36C483.455 646.485 482.693 638.23 482.344 628.5C486.367 628.415 490.486 628.145 494.512 627.925C494.724 639.135 494.537 652.56 488.773 662.755C475.393 686.43 450.743 671.055 429.156 678.58C418.859 682.17 413.363 685.62 407.419 695.505C406.456 697.105 406.03 698.725 406.586 700.47C408.051 701.87 407.219 701.4 409.188 701.925C412.81 701.065 414.518 696.28 417.11 693.48C430.772 678.7 451.568 684.595 469.129 683.29C461.524 690.115 453.851 695.82 446.404 703.21C438.049 711.5 424.972 729.945 415.286 734.99C396.186 744.94 365.59 732.27 344.521 741.5C337.903 744.4 335.986 745.855 330.209 750.29L336.542 754.435C354.459 739.975 371.099 745.1 393.497 745.465C392.941 745.925 392.397 746.4 391.867 746.885C380.103 757.545 379.275 762.955 378.532 778.055L385.707 781.34C385.694 780.985 385.684 780.63 385.677 780.275C385.423 767.33 385.525 762.23 395.172 752.515C403.962 743.66 409.102 746.055 418.895 740.87C424.189 738.065 431.685 729.625 436.004 725.115C434.958 733.08 436.594 743.17 434.529 750.985C432.63 758.17 414.927 782.015 423.505 788.59C425.14 789.065 425.027 789.01 426.647 788.435C429.126 785.725 428.754 777.9 430.157 774.49C431.467 771.305 434.224 766.095 436.133 763.265C442.553 753.75 442.58 744.84 442.329 733.53C441.901 714.245 451.178 707.195 464.912 695.72C471.926 689.94 478.682 683.855 485.162 677.485C508.2 654.405 499.501 628.34 501.06 598.58C501.445 591.205 501.335 582.9 501.335 575.485C495.938 575.56 490.684 575.62 485.292 575.145C462.605 573.14 441.654 562.17 427.082 544.665C412.529 527.005 406.947 505.24 409.091 482.636C411.234 482.549 413.379 482.503 415.524 482.496C439.151 482.555 461.502 491.355 478.08 508.32C496.359 527.025 501.67 550.11 501.47 575.49C505.005 575.385 514.81 574.92 518.01 575.305C517.675 578 517.93 585.045 517.94 588.035L517.96 614.855C517.93 659.31 515.375 663.855 553.18 695.175C560.685 701.52 569.76 708.155 573.8 717.425C579.575 730.695 573.695 745.92 580.43 759.125C583.35 764.85 587.05 769.855 589.34 775.835C590.99 780.155 588.395 788.165 594.475 788.875C605.715 784.625 584.64 755.44 583.905 749.015C582.995 741.035 583.92 732.88 583.015 725.02C586.72 729.805 596.065 739.78 601.56 741.96C612.315 746.225 616.135 744.615 625.15 753.995C634.21 763.42 633.225 770.04 633.115 782.245L640.125 778.925C640.045 775.835 639.89 772.75 639.655 769.675C638.75 757.64 633.66 752.745 625.155 745.455C645.96 746.27 664.095 738.68 683.215 755.25C685.145 753.86 687.22 752.575 689.225 751.285C659.85 724.33 634.015 747.71 603.54 735.02C595.005 731.465 581.845 712.42 574.515 705.135C566.7 697.37 558.695 690.795 550.21 683.59C568.955 684.345 593.37 678.27 605.085 698.05C606.33 700.15 609.63 703.41 612.135 701.535C613.545 696.03 608.505 691.06 605.16 687.475C592.985 674.175 576.21 676.405 559.865 676.785C526.875 677.56 524.565 653.76 524.495 628.01C528.485 628.08 532.54 628.245 536.535 628.37C536.385 638.635 535.545 648.04 544.08 655.66C557.62 667.755 579.39 662.625 595.835 662.56C608.345 662.51 619.09 664.695 628.28 673.635C635.395 680.405 632.97 689.02 633.075 697.845C633.165 705.555 635.335 712.955 641.045 718.455C642.925 720.27 646.19 723 648.85 722.91C652.035 719.685 646.245 713.825 644.145 711.61C638.3 705.43 639.53 694.32 639.96 686.46C649.93 697.755 656.565 704.425 672.225 704.61C677.98 704.625 681.365 706.61 686.045 708.945C692.115 711.975 706.295 733.405 712.295 731.755C715.95 725.85 695.7 708.29 691.125 703.96C695.675 704.82 722.87 706.265 723.84 700.935C723.175 699.595 721.505 698.15 720.07 697.805C716.46 696.95 711.875 697.45 708.285 697.33C696.245 696.945 674.255 698.69 663.44 696.485C653.93 694.545 639.945 675.77 632.195 668.23C614.97 651.465 596.835 656.535 574.755 656.895C566.025 657.035 554.615 656.38 547.91 649.805C542.175 644.18 543.13 636.27 543.135 628.845C559.63 630.595 574.9 631.835 591.42 634.805C636.97 643.005 680.93 658.355 721.68 680.285C730.22 684.885 741.475 691.185 749.41 696.785C796.22 638.945 819.71 581.845 824.095 507.26C802.77 506.69 780.02 507.415 758.52 507.16C749.77 507.06 727.415 506.655 719.97 507.47L719.935 481.496L844.965 481.402C844.905 500.565 844.645 515.425 842.295 534.77C835.245 591.2 813.855 644.88 780.165 690.695C732.06 756.34 661.72 802.245 582.26 819.845C570.13 822.46 557.87 824.455 545.535 825.81C539.155 826.455 530.885 826.425 524.91 827.37L524.415 827.455C524.555 811.97 522.19 787.3 526.805 772.29C527.785 769.115 534.82 761.91 537.485 759.03C537.12 792.18 536.75 793.4 561.595 815.62L568.605 815.445C563.85 808.495 549.22 795.695 547.21 791.005C538.48 770.65 549.945 740.315 544.33 719.58C538.01 703.485 522.705 698.64 515.925 682.025C512.445 673.505 514.425 653.245 511.175 648.73C509.515 648.08 510.405 648.265 508.32 648.655C503.82 653.07 508.685 690.18 505.105 700.755C499.164 718.32 485.787 720.46 477.985 735.15C469.603 750.93 477.041 772.195 471.891 788.565C469.574 795.93 458.298 804.1 453.186 810.2C449.764 814.285 448.871 816.31 446.494 821.22C385.42 809.615 328.866 781 283.344 738.665C218.862 678.82 180.46 596.05 176.408 508.17C172.234 419.548 203.51 332.91 263.329 267.389Z" fill="#74A13B"/>
<path d="M509.21 303.892C511.42 304.426 515.635 309.327 517.25 311.164C550.795 349.293 548.975 401.02 509.85 434.249C507.965 433.94 504.145 429.602 502.755 428.226C479.907 405.665 472.326 372.58 483.058 342.26C488.641 326.488 497.002 315.315 509.21 303.892Z" fill="#74A13B"/>
<path d="M596.655 396.698C601.15 396.244 605.75 396.508 610.23 397.021C613.56 447.288 582.825 483.309 533.125 489.516L517.835 489.576C514.66 439.43 546.79 401.915 596.655 396.698Z" fill="#74A13B"/>
<path d="M412.898 396.72C439.616 394.291 470.82 409.566 485.75 431.552C495.09 445.307 500.565 459.898 501.32 476.582C501.51 480.788 501.99 484.928 501.275 489.084C500.025 489.911 499.46 489.634 497.701 489.723C487.322 490.066 476.958 488.688 467.03 485.644C438.921 476.784 416.487 453.463 410.464 424.43C409.166 418.172 407.266 404.047 409.159 398.085C410.692 396.769 410.582 397.153 412.898 396.72Z" fill="#74A13B"/>
<path d="M518.01 575.305C515.81 553.945 523.115 529.805 536.77 513.235C555.43 490.592 581.61 482.019 610.225 482.55C611.86 506.28 606.775 528.075 590.86 546.245C575.895 563.44 554.695 573.95 531.95 575.45C528.835 575.65 521.145 575.715 518.01 575.305Z" fill="#74A13B"/>
<path d="M513.07 692.185C516.3 694.24 524.105 705.81 528.605 708.65C531.1 710.225 536.25 717.97 537.475 721.015C541.395 730.765 539.815 744.295 533.735 752.95C529.065 759.555 521.2 765 519.08 773.13C516.91 781.475 517.47 789.625 517.45 798.115C517.43 807.885 517.545 817.67 517.6 827.45L507.755 827.3C498.661 827.05 489.566 826.745 480.473 826.38C481.049 803.595 480.654 778.975 480.444 756.155C480.127 721.815 512.59 725.42 513.07 692.185Z" fill="#74A13B"/>
<path d="M473.277 799.835C474.403 801.02 473.989 821.685 474.012 825.475C467.679 824.595 461.355 823.655 455.041 822.655C453.551 822.445 450.952 822.315 449.891 821.54C451.102 819.895 458.115 814.195 460.104 812.43C464.646 808.39 469.04 804.19 473.277 799.835Z" fill="#74A13B"/>
</svg>
