<?xml version="1.0" encoding="utf-8"?>
<!-- Generator: Adobe Illustrator 28.1.0, SVG Export Plug-In . SVG Version: 6.00 Build 0)  -->
<svg version="1.1" xmlns="http://www.w3.org/2000/svg" xmlns:xlink="http://www.w3.org/1999/xlink" x="0px" y="0px"
	 viewBox="0 0 288 86.4" style="enable-background:new 0 0 288 86.4;" xml:space="preserve">
<style type="text/css">
	.Arched_x0020_Green{fill:url(#SVGID_1_);stroke:#FFFFFF;stroke-width:0.25;stroke-miterlimit:1;}
	.st0{fill:#EE3124;}
</style>
<linearGradient id="SVGID_1_" gradientUnits="userSpaceOnUse" x1="-3894.6855" y1="-938.9094" x2="-3893.9783" y2="-939.6165">
	<stop  offset="0" style="stop-color:#20AC4B"/>
	<stop  offset="0.9831" style="stop-color:#19361A"/>
</linearGradient>
<g id="Layer_1">
	<g>
		<g>
			<g>
				<path d="M7.5,13.7h22.4l-1.8,6.6H13.4l-1.2,4.2h13.3L24,30.7H10.6l-1.2,4.4h14.9l-1.8,6.6H0L7.5,13.7z"/>
				<path d="M69.7,29.7c0-8.5,6.9-16.5,16.7-16.5c7.9,0,13.3,5.4,13.3,12.5c0,8.5-6.9,16.5-16.7,16.5C75.1,42.2,69.7,36.8,69.7,29.7
					z M91.8,26.4c0-3.6-2.2-6.2-6.1-6.2c-4.9,0-8.1,4.8-8.1,8.9c0,3.6,2.2,6.2,6.1,6.2C88.6,35.3,91.8,30.5,91.8,26.4z"/>
				<path d="M105.4,13.7h8.5l1.6,17.6l11-17.6h7l-16.8,28.2h-7.5L105.4,13.7z"/>
				<path d="M146.8,13.5h7.6l4.4,28.2h-8.1l-0.7-5h-10.8l-3.4,5h-8.4L146.8,13.5z M149.3,30.7l-1-8l-5.2,8H149.3z"/>
				<path d="M175.6,20.5h-8.4l1.8-6.8h24.5l-1.8,6.8h-8.4l-5.7,21.2h-7.8L175.6,20.5z"/>
				<path d="M202.8,13.7h7.7l-7.5,28h-7.7L202.8,13.7z"/>
				<path d="M216.7,29.7c0-8.5,6.9-16.5,16.7-16.5c7.9,0,13.3,5.4,13.3,12.5c0,8.5-6.9,16.5-16.7,16.5
					C222.1,42.2,216.7,36.8,216.7,29.7z M238.7,26.4c0-3.6-2.2-6.2-6.1-6.2c-4.9,0-8.1,4.8-8.1,8.9c0,3.6,2.2,6.2,6.1,6.2
					C235.6,35.3,238.7,30.5,238.7,26.4z"/>
				<path d="M260.1,13.7h7.2l7.2,15.5l4.2-15.5h7.7l-7.5,28h-6.8l-7.5-16.1l-4.3,16.1h-7.7L260.1,13.7z"/>
			</g>
			<path class="st0" d="M54.9,60.8c0,0-14.4-38.3,20.8-57.2C75.7,3.6,59.8,20.6,54.9,60.8z"/>
			<path d="M54.2,28.2l-6.7-14.5h-7.2l-7.5,28h7.7l4.3-16.1L52,41.1C52.1,37,52.7,32.6,54.2,28.2z"/>
		</g>
		<path d="M282.3,46.1c0,0.4-0.5,0.8-1,0.8H63.5c-0.6,0-1-0.3-1-0.8l0,0c0-0.4,0.5-0.8,1-0.8h217.9
			C281.9,45.3,282.3,45.7,282.3,46.1L282.3,46.1z"/>
		<g>
			<path class="st0" d="M141.5,61.8c-0.4,1.9-1.2,3.3-2.4,4.4c-1.2,1.1-2.8,1.6-4.9,1.6c-1.1,0-2.1-0.2-3-0.5
				c-0.9-0.3-1.6-0.8-2.2-1.4c-0.6-0.6-1.1-1.4-1.4-2.3c-0.3-0.9-0.5-1.9-0.5-3.1c0-1.3,0.2-2.6,0.6-3.8c0.4-1.2,1-2.3,1.8-3.2
				c0.8-0.9,1.7-1.7,2.9-2.2c1.1-0.5,2.4-0.8,3.8-0.8c0.9,0,1.7,0.1,2.5,0.4c0.8,0.2,1.4,0.6,2,1.1c0.6,0.5,1,1.1,1.3,1.8
				c0.3,0.7,0.5,1.6,0.5,2.5h-2.2c0-1.3-0.4-2.3-1.1-2.9c-0.8-0.6-1.8-1-3-1c-1.2,0-2.2,0.2-3,0.7c-0.9,0.5-1.6,1.1-2.1,1.9
				c-0.6,0.8-1,1.7-1.3,2.6c-0.3,1-0.4,2-0.4,3c0,0.8,0.1,1.5,0.3,2.2c0.2,0.7,0.5,1.2,0.9,1.7c0.4,0.5,0.9,0.8,1.5,1.1
				c0.6,0.3,1.3,0.4,2.2,0.4c1.4,0,2.5-0.4,3.3-1.1c0.9-0.7,1.5-1.7,1.8-3H141.5z"/>
			<path class="st0" d="M148.2,60.5c0-1.3,0.2-2.6,0.6-3.8c0.4-1.2,1-2.3,1.8-3.2c0.8-0.9,1.7-1.7,2.9-2.2c1.1-0.5,2.4-0.8,3.8-0.8
				c1.1,0,2,0.2,2.9,0.6c0.9,0.4,1.6,0.9,2.2,1.6c0.6,0.7,1.1,1.4,1.4,2.3c0.3,0.9,0.5,1.9,0.5,2.9c0,1.3-0.2,2.6-0.6,3.8
				c-0.4,1.2-1,2.3-1.8,3.2c-0.8,0.9-1.7,1.7-2.8,2.2c-1.1,0.6-2.3,0.8-3.7,0.8c-1.1,0-2.1-0.2-3-0.5c-0.9-0.3-1.6-0.8-2.2-1.4
				c-0.6-0.6-1.1-1.4-1.4-2.3C148.4,62.6,148.2,61.6,148.2,60.5z M150.5,60.5c0,0.8,0.1,1.5,0.3,2.2c0.2,0.7,0.5,1.2,0.9,1.7
				c0.4,0.5,0.9,0.8,1.5,1.1c0.6,0.3,1.3,0.4,2.2,0.4c1.1,0,2.1-0.2,2.9-0.7c0.8-0.5,1.5-1.1,2.1-1.9s1-1.6,1.3-2.6
				c0.3-1,0.4-2,0.4-2.9c0-0.8-0.1-1.5-0.3-2.1c-0.2-0.7-0.5-1.3-0.9-1.7c-0.4-0.5-0.9-0.9-1.5-1.2c-0.6-0.3-1.3-0.4-2-0.4
				c-1.2,0-2.2,0.2-3,0.7c-0.9,0.5-1.6,1.1-2.1,1.9c-0.6,0.8-1,1.7-1.3,2.6C150.6,58.5,150.5,59.5,150.5,60.5z"/>
			<path class="st0" d="M173,50.8h2.4l5.9,13.7h0l2.8-13.7h2.1l-3.5,16.6h-2.4l-5.9-13.6h0l-2.8,13.6h-2.1L173,50.8z"/>
			<path class="st0" d="M205.2,52.6h-5.6l-3.1,14.7h-2.2l3.1-14.7h-5.6l0.4-1.9h13.4L205.2,52.6z"/>
			<path class="st0" d="M211.9,50.8h6.4c0.7,0,1.4,0.1,2,0.2c0.7,0.1,1.2,0.4,1.8,0.7c0.5,0.3,0.9,0.8,1.2,1.3s0.5,1.2,0.5,2
				c0,0.6-0.1,1.1-0.3,1.6c-0.2,0.5-0.4,1-0.8,1.3c-0.3,0.4-0.7,0.7-1.2,1c-0.5,0.3-1,0.4-1.5,0.5v0c0.4,0.1,0.7,0.3,0.9,0.5
				c0.2,0.2,0.4,0.5,0.6,0.8c0.1,0.3,0.2,0.7,0.3,1.1c0,0.4,0,0.8,0,1.2c0,0.4-0.1,0.7-0.1,1.1c-0.1,0.4-0.1,0.7-0.1,1.1
				c0,0.3,0,0.7,0,1c0,0.3,0.1,0.7,0.3,1h-2.3c-0.1-0.3-0.2-0.8-0.2-1.4c0-0.6,0.1-1.3,0.2-2.2c0.2-1,0.2-1.7,0-2.2
				c-0.1-0.5-0.4-0.8-0.7-1c-0.3-0.2-0.6-0.3-1-0.3c-0.4,0-0.6,0-0.9,0h-4.9l-1.5,7.1h-2.2L211.9,50.8z M212.5,58.4h5
				c0.9,0,1.6-0.1,2.1-0.3c0.5-0.2,0.9-0.5,1.2-0.8c0.3-0.3,0.5-0.7,0.6-1.1c0.1-0.4,0.2-0.7,0.2-1c0-0.5-0.1-0.9-0.3-1.3
				c-0.2-0.3-0.4-0.6-0.7-0.8c-0.3-0.2-0.6-0.3-1-0.4c-0.4-0.1-0.8-0.1-1.2-0.1h-4.6L212.5,58.4z"/>
			<path class="st0" d="M229.4,60.5c0-1.3,0.2-2.6,0.6-3.8c0.4-1.2,1-2.3,1.8-3.2c0.8-0.9,1.7-1.7,2.9-2.2c1.1-0.5,2.4-0.8,3.8-0.8
				c1.1,0,2,0.2,2.9,0.6c0.9,0.4,1.6,0.9,2.2,1.6c0.6,0.7,1.1,1.4,1.4,2.3c0.3,0.9,0.5,1.9,0.5,2.9c0,1.3-0.2,2.6-0.6,3.8
				c-0.4,1.2-1,2.3-1.8,3.2c-0.8,0.9-1.7,1.7-2.8,2.2c-1.1,0.6-2.3,0.8-3.7,0.8c-1.1,0-2.1-0.2-3-0.5c-0.9-0.3-1.6-0.8-2.2-1.4
				c-0.6-0.6-1.1-1.4-1.4-2.3C229.5,62.6,229.4,61.6,229.4,60.5z M231.6,60.5c0,0.8,0.1,1.5,0.3,2.2c0.2,0.7,0.5,1.2,0.9,1.7
				c0.4,0.5,0.9,0.8,1.5,1.1c0.6,0.3,1.3,0.4,2.2,0.4c1.1,0,2.1-0.2,2.9-0.7c0.8-0.5,1.5-1.1,2.1-1.9c0.6-0.8,1-1.6,1.3-2.6
				c0.3-1,0.4-2,0.4-2.9c0-0.8-0.1-1.5-0.3-2.1c-0.2-0.7-0.5-1.3-0.9-1.7c-0.4-0.5-0.9-0.9-1.5-1.2c-0.6-0.3-1.3-0.4-2-0.4
				c-1.2,0-2.2,0.2-3,0.7c-0.9,0.5-1.6,1.1-2.1,1.9c-0.6,0.8-1,1.7-1.3,2.6C231.7,58.5,231.6,59.5,231.6,60.5z"/>
			<path class="st0" d="M254.2,50.8h2.2l-3.1,14.7h8.7l-0.4,1.9h-11L254.2,50.8z"/>
			<path class="st0" d="M279.8,55.7c0-0.6-0.1-1.2-0.2-1.6c-0.2-0.4-0.4-0.8-0.8-1.1c-0.3-0.3-0.7-0.5-1.2-0.6
				c-0.5-0.1-1-0.2-1.6-0.2c-0.4,0-0.8,0-1.3,0.2c-0.4,0.1-0.9,0.3-1.2,0.5c-0.4,0.2-0.7,0.5-0.9,0.8c-0.2,0.3-0.4,0.8-0.4,1.3
				c0,0.4,0.1,0.7,0.2,1c0.1,0.3,0.3,0.5,0.6,0.7c0.2,0.2,0.5,0.4,0.9,0.5c0.3,0.1,0.7,0.3,1.1,0.4l2.2,0.6c0.5,0.1,1,0.3,1.5,0.5
				c0.5,0.2,0.9,0.5,1.3,0.8c0.4,0.3,0.7,0.8,0.9,1.3c0.2,0.5,0.3,1.1,0.3,1.9c0,0.9-0.2,1.6-0.6,2.2c-0.4,0.6-0.9,1.2-1.5,1.6
				c-0.6,0.4-1.3,0.7-2.1,0.9c-0.8,0.2-1.5,0.3-2.3,0.3c-1,0-1.9-0.1-2.7-0.3c-0.8-0.2-1.5-0.6-2.1-1.1c-0.6-0.5-1-1.1-1.3-1.8
				c-0.3-0.7-0.4-1.6-0.3-2.6h2.2c0,0.7,0.1,1.4,0.3,1.9c0.2,0.5,0.5,0.9,0.9,1.2c0.4,0.3,0.9,0.5,1.4,0.7c0.5,0.1,1.2,0.2,1.8,0.2
				c0.5,0,1-0.1,1.5-0.2c0.5-0.1,0.9-0.3,1.3-0.6c0.4-0.3,0.7-0.6,0.9-1c0.2-0.4,0.4-0.9,0.4-1.4c0-0.4-0.1-0.8-0.2-1.1
				c-0.2-0.3-0.4-0.6-0.6-0.8c-0.3-0.2-0.6-0.4-0.9-0.5c-0.4-0.1-0.7-0.3-1.1-0.4l-2.2-0.6c-0.5-0.1-1-0.3-1.4-0.5
				c-0.4-0.2-0.8-0.5-1.2-0.8c-0.3-0.3-0.6-0.7-0.8-1.2c-0.2-0.5-0.3-1-0.3-1.6c0-0.8,0.2-1.5,0.5-2.1c0.4-0.6,0.8-1.1,1.4-1.5
				c0.6-0.4,1.2-0.7,1.9-0.9c0.7-0.2,1.4-0.3,2.2-0.3c0.8,0,1.6,0.1,2.3,0.3c0.7,0.2,1.4,0.5,1.9,1c0.6,0.4,1,1,1.3,1.6
				c0.3,0.7,0.5,1.5,0.4,2.4H279.8z"/>
		</g>
		<g>
			<path class="st0" d="M288,53.3c0,1.3-1,2.3-2.4,2.3c-1.3,0-2.4-1-2.4-2.3c0-1.3,1.1-2.3,2.4-2.3C287,51,288,52,288,53.3z
				 M283.8,53.3c0,1,0.8,1.9,1.8,1.9c1,0,1.8-0.8,1.8-1.8c0-1-0.7-1.9-1.8-1.9C284.6,51.4,283.8,52.3,283.8,53.3z M285.3,54.5h-0.5
				v-2.3c0.2,0,0.5-0.1,0.9-0.1c0.4,0,0.6,0.1,0.8,0.2c0.1,0.1,0.2,0.3,0.2,0.5c0,0.3-0.2,0.5-0.5,0.5v0c0.2,0.1,0.4,0.3,0.4,0.6
				c0.1,0.4,0.1,0.5,0.2,0.6h-0.6c-0.1-0.1-0.1-0.3-0.2-0.6c0-0.3-0.2-0.4-0.5-0.4h-0.3V54.5z M285.3,53.2h0.3
				c0.3,0,0.5-0.1,0.5-0.3c0-0.2-0.2-0.4-0.5-0.4c-0.1,0-0.2,0-0.3,0V53.2z"/>
		</g>
	</g>
</g>
<g id="Layer_2">
	<g>
		<path d="M61.7,82.6h-2.2L59,81.4h-3.5l-0.5,1.2h-2.2l3.3-6.7h2.3L61.7,82.6z M58.3,79.9l-1.1-2.4h0l-1.1,2.4H58.3z"/>
		<path d="M73.9,82.6h-2.1v-2.5h-3.6v2.5h-2.1v-6.7h2.1v2.4h3.6v-2.4h2.1V82.6z"/>
		<path d="M82.1,82.6h-6.8v-6.7H82v1.6h-4.6v1h4.4V80h-4.4v1h4.8V82.6z"/>
		<path d="M89.3,82.6h-6v-6.7h2.1v4.9h4V82.6z"/>
		<path d="M92.3,82.6h-2.1v-6.7h2.1V82.6z"/>
		<path d="M97.7,82.7c-3.5,0-4-0.4-4-3.4v-0.2c0-2.9,0.5-3.4,4-3.4h0.3c3.5,0,4,0.4,4,3.4v0.2c0,2.9-0.5,3.4-4,3.4H97.7z M97.9,80.9
			c1.9,0,2-0.1,2-1.6v-0.1c0-1.5-0.1-1.6-2-1.6h-0.2c-1.9,0-2,0.1-2,1.6v0.1c0,1.5,0.1,1.6,2,1.6H97.9z"/>
		<path d="M106.9,82.7c-3.4,0-3.8-0.4-3.8-2v-0.2h2.1v0.1c0,0.4,0.2,0.5,1.6,0.5h0.2c1.5,0,1.6-0.1,1.6-0.5v-0.1
			c0-0.4-0.1-0.5-1.8-0.5c-3.4,0-3.7-0.4-3.7-2.1v-0.1c0-1.5,0.5-2,3.3-2h0.4c3.3,0,3.6,0.4,3.6,2v0.2h-2v-0.1
			c0-0.3-0.1-0.5-1.4-0.5h-0.3c-1.5,0-1.6,0.1-1.6,0.5v0.1c0,0.4,0.1,0.5,1.9,0.5c3.1,0,3.6,0.4,3.6,2.1v0.1c0,1.6-0.5,2.1-3.4,2.1
			H106.9z"/>
		<path d="M119.7,82.6h-2.1v-5h-2.5v-1.8h7.1v1.8h-2.5V82.6z"/>
		<path d="M129.9,82.6h-6.8v-6.7h6.7v1.6h-4.6v1h4.4V80h-4.4v1h4.8V82.6z"/>
		<path d="M134.9,82.7c-3.4,0-4-0.5-4-3.4v-0.1c0-2.9,0.6-3.4,4-3.4h0.3c3,0,3.6,0.4,3.6,2.3v0.4h-2v-0.2c0-0.5-0.1-0.7-1.6-0.7H135
			c-1.9,0-1.9,0.1-1.9,1.6v0.1c0,1.5,0.1,1.6,1.9,1.6h0.2c1.6,0,1.7-0.1,1.7-0.8v-0.2h2v0.5c0,1.8-0.5,2.3-3.6,2.3H134.9z"/>
		<path d="M147.8,82.6h-2.1v-2.5h-3.6v2.5h-2.1v-6.7h2.1v2.4h3.6v-2.4h2.1V82.6z"/>
		<path d="M157.4,82.6h-2.8l-3.2-4.8h0v4.8h-2v-6.7h2.9l3.1,4.8h0v-4.8h2V82.6z"/>
		<path d="M162.7,82.7c-3.5,0-4-0.4-4-3.4v-0.2c0-2.9,0.5-3.4,4-3.4h0.3c3.5,0,4,0.4,4,3.4v0.2c0,2.9-0.5,3.4-4,3.4H162.7z
			 M162.9,80.9c1.9,0,2-0.1,2-1.6v-0.1c0-1.5-0.1-1.6-2-1.6h-0.2c-1.9,0-2,0.1-2,1.6v0.1c0,1.5,0.1,1.6,2,1.6H162.9z"/>
		<path d="M174.3,82.6h-6v-6.7h2.1v4.9h4V82.6z"/>
		<path d="M178.9,82.7c-3.5,0-4-0.4-4-3.4v-0.2c0-2.9,0.5-3.4,4-3.4h0.3c3.5,0,4,0.4,4,3.4v0.2c0,2.9-0.5,3.4-4,3.4H178.9z
			 M179.1,80.9c1.9,0,2-0.1,2-1.6v-0.1c0-1.5-0.1-1.6-2-1.6H179c-1.9,0-2,0.1-2,1.6v0.1c0,1.5,0.1,1.6,2,1.6H179.1z"/>
		<path d="M188.3,82.7c-3.4,0-4-0.5-4-3.4v-0.1c0-2.9,0.6-3.4,4-3.4h0.3c2.9,0,3.6,0.5,3.6,2.1v0.3h-2v-0.1c0-0.4-0.2-0.6-1.6-0.6
			h-0.2c-1.9,0-2,0.1-2,1.7v0.1c0,1.5,0.1,1.7,2,1.7h0.2c1.6,0,1.8-0.2,1.8-0.8v-0.1h-2.1v-1.3h4v1.4c0,2-0.7,2.5-3.6,2.5H188.3z"/>
		<path d="M195.6,82.6h-2.1v-6.7h2.1V82.6z"/>
		<path d="M203.9,82.6h-6.8v-6.7h6.7v1.6h-4.6v1h4.4V80h-4.4v1h4.8V82.6z"/>
		<path d="M208.7,82.7c-3.4,0-3.8-0.4-3.8-2v-0.2h2.1v0.1c0,0.4,0.2,0.5,1.6,0.5h0.2c1.5,0,1.6-0.1,1.6-0.5v-0.1
			c0-0.4-0.1-0.5-1.8-0.5c-3.4,0-3.7-0.4-3.7-2.1v-0.1c0-1.5,0.5-2,3.3-2h0.4c3.3,0,3.6,0.4,3.6,2v0.2h-2v-0.1
			c0-0.3-0.1-0.5-1.4-0.5h-0.3c-1.5,0-1.7,0.1-1.7,0.5v0.1c0,0.4,0.1,0.5,1.9,0.5c3.1,0,3.6,0.4,3.6,2.1v0.1c0,1.6-0.5,2.1-3.4,2.1
			H208.7z"/>
		<path d="M221.2,82.7c-3.4,0-4-0.5-4-3.4v-0.1c0-2.9,0.6-3.4,4-3.4h0.3c3,0,3.6,0.4,3.6,2.3v0.4h-2v-0.2c0-0.5-0.1-0.7-1.6-0.7
			h-0.2c-1.9,0-1.9,0.1-1.9,1.6v0.1c0,1.5,0.1,1.6,1.9,1.6h0.2c1.6,0,1.7-0.1,1.7-0.8v-0.2h2v0.5c0,1.8-0.5,2.3-3.6,2.3H221.2z"/>
		<path d="M230.3,82.7c-3.5,0-4-0.4-4-3.4v-0.2c0-2.9,0.5-3.4,4-3.4h0.3c3.5,0,4,0.4,4,3.4v0.2c0,2.9-0.5,3.4-4,3.4H230.3z
			 M230.5,80.9c1.9,0,2-0.1,2-1.6v-0.1c0-1.5-0.1-1.6-2-1.6h-0.2c-1.9,0-2,0.1-2,1.6v0.1c0,1.5,0.1,1.6,2,1.6H230.5z"/>
		<path d="M245.7,82.6h-2v-4.5h0l-2.1,4.5H240l-2.1-4.5h0v4.5h-2v-6.7h2.8l2.1,4.5h0l2.1-4.5h2.8V82.6z"/>
		<path d="M249.2,82.6h-2.1v-6.7h4.2c2.5,0,3,0.4,3,2.4v0.2c0,2-0.6,2.4-3,2.4h-2.1V82.6z M251.1,79.2c1.2,0,1.3-0.1,1.3-0.8v-0.1
			c0-0.7-0.1-0.8-1.3-0.8h-1.8v1.7H251.1z"/>
		<path d="M263.2,82.6H261l-0.5-1.2h-3.5l-0.5,1.2h-2.2l3.3-6.7h2.3L263.2,82.6z M259.8,79.9l-1.1-2.4h0l-1.1,2.4H259.8z"/>
		<path d="M272,82.6h-2.8l-3.2-4.8h0v4.8h-2v-6.7h2.9l3.1,4.8h0v-4.8h2V82.6z"/>
		<path d="M278.1,82.6h-2.1v-2.4l-3.3-4.4h2.4l1.9,2.7h0l1.8-2.7h2.4l-3.3,4.4V82.6z"/>
	</g>
</g>
</svg>
