<?xml version="1.0" encoding="UTF-8"?> <svg xmlns="http://www.w3.org/2000/svg" xmlns:xlink="http://www.w3.org/1999/xlink" id="WORDMARK" viewBox="0 0 217.67 54"><defs><style> .cls-1 { fill: none; } .cls-2 { fill: #004438; } .cls-3 { clip-path: url(#clippath-1); } .cls-4 { clip-path: url(#clippath-3); } .cls-5 { clip-path: url(#clippath-2); } .cls-6 { clip-path: url(#clippath); } </style><clipPath id="clippath"><rect class="cls-1" x="47.48" y="9.05" width="170.19" height="25.61"></rect></clipPath><clipPath id="clippath-1"><rect class="cls-1" x="47.48" y="9.05" width="170.19" height="25.61"></rect></clipPath><clipPath id="clippath-2"><rect class="cls-1" x="0" width="40.66" height="54"></rect></clipPath><clipPath id="clippath-3"><rect class="cls-1" x="0" width="40.66" height="54"></rect></clipPath></defs><g id="TGI_Wordmark_Green"><g class="cls-6"><g class="cls-3"><path class="cls-2" d="M61.51,17.49c.52.1.7.13.99.21.1,0,.31.21.31.63.03.63.36,1.88.36,2.88,0,.34-.16.57-.34.57-.16,0-.31-.21-.47-.6-.26-.71-.6-1.33-.99-1.83-.58-.71-2.09-1.62-4.18-1.62-4.47,0-7.11,3.66-7.11,7.79,0,1.86.42,3.5,1.18,4.76,1.39,2.35,3.89,3.61,6.32,3.61.31,0,1.62-.16,2.35-.63.21-.13.55-1.02.55-1.36,0-.91-.03-2.4-.08-2.72-.18-.6-.39-1.1-2.35-1.23-.39-.03-.68-.23-.68-.44,0-.18.29-.37.78-.37.47,0,2.38.1,3.14.1.63,0,1.52-.1,2.35-.1.42,0,.7.13.7.34,0,.18-.29.34-.6.44-.78.23-.84.52-.94.81-.11.29-.13,2.17-.13,3.24,0,.42.24.68.37.76.47.26.44.34.44.47,0,.11-.1.29-.39.37-.47.13-1.36.34-2.38.63-1.12.31-2.74.47-3.61.47-2.93,0-5.36-.94-6.95-2.38-1.2-1.15-2.69-3.29-2.69-6.43,0-2.32.81-4.7,2.95-6.59,1.65-1.46,4.15-2.35,6.69-2.35,1.91,0,3.29.34,4.39.58"></path><path class="cls-2" d="M72.77,22.3c.13.89.26,1.28.31,1.39.34.97,2.56,6.59,3.21,8.02.55,1.31.76,1.52,1.88,1.8.47.13.63.26.63.39,0,.21-.26.42-.55.42-1.25,0-2.22-.13-3.08-.13-.63,0-1.07.08-1.91.08-.39,0-.63-.18-.63-.37,0-.16.18-.29.63-.39.78-.18,1.05-.6,1.05-.91,0-.21-.44-1.57-.63-1.99-.05-.16-.16-.23-.63-.26-.34-.03-2.14-.03-3.03,0-.5.03-.73.03-.81.16-.18.44-.63,1.49-.63,2.01s.16.76,1.02,1.02c.29.11.58.16.58.42,0,.21-.29.31-.6.31-.68,0-1.23-.08-1.91-.08-.86,0-1.52.13-2.17.13-.24,0-.52-.11-.52-.31s.26-.31.63-.42c.91-.24,1.28-.44,1.96-1.7.42-.84,2.56-5.91,2.9-6.74.34-.78.55-1.36.6-1.7.03-.13.13-.29.31-.47.16-.24.47-.45.65-.68.21-.29.31-.31.44-.31.1,0,.26.13.29.31M73.11,29.01c-.47-1.25-1.36-3.5-1.49-3.82,0-.03-.21-.13-.26-.03-.47,1.2-1.18,2.82-1.57,3.89,0,.08.08.23.18.23.47.03,2.53.05,2.95-.03.08,0,.24-.13.18-.26"></path><path class="cls-2" d="M87.81,22.4c.18.03.26.34.26.63,0,.76.03,1.36-.03,1.7-.08.5-.29.57-.37.57-.24,0-.34-.31-.42-.63-.21-.76-.55-1.17-.89-1.46-.34-.29-.94-.52-1.57-.52-1.31,0-2.19.91-2.19,2.04,0,.89.73,1.59,1.62,2.09.84.47,1.54.81,2.3,1.26,1.1.63,1.99,1.59,1.99,3.06,0,1.2-.81,2.2-1.57,2.67-.55.36-1.75.81-2.9.81-1.57,0-2.69-.37-3.29-.81-.21-.13-.26-.39-.29-.55-.03-.31-.24-1.57-.24-1.96,0-.5.18-.71.36-.71.24,0,.31.29.42.57.13.34.39.89.6,1.23.65.86,1.57,1.49,2.72,1.49,1.46,0,2.17-1.05,2.17-1.93,0-1.02-.55-1.57-1.51-2.17-.78-.47-1.49-.84-2.07-1.2-.94-.6-2.14-1.62-2.14-3.19,0-1.96,1.62-3.4,4.23-3.4,1.33,0,2.06.31,2.8.42"></path><path class="cls-2" d="M90.94,22.35c.55,0,1.12.05,1.65.05.89,0,1.96-.11,2.69-.11,1.72,0,2.9.37,3.55.94.81.73,1.18,1.67,1.18,2.69,0,1.2-.65,2.14-1.31,2.69-.55.55-1.57.73-2.12.73-.29,0-.55-.05-.81-.13-.31-.11-.42-.24-.42-.37,0-.16.16-.29.58-.29,1.02,0,2.06-1.05,2.06-2.48,0-.97-.34-1.75-.86-2.27-.47-.47-1.36-.84-1.88-.84-.21,0-.71.12-.92.24-.08.05-.19.29-.21.42-.16.99-.05,7.74-.05,8.28,0,1.07.29,1.36,1.44,1.62.29.08.55.21.55.39,0,.26-.44.34-.65.34-1.07,0-1.54-.08-2.04-.08-.68,0-2.01.1-2.77.1-.42,0-.63-.08-.63-.31,0-.16.13-.29.63-.44.97-.24,1.33-.47,1.41-1.41.05-.65.08-1.02.08-1.83,0-.55-.03-5.51-.05-6.06-.03-.63-.08-.89-1.28-1.12-.34-.08-.55-.24-.55-.42,0-.29.5-.34.73-.34"></path><path class="cls-2" d="M106.91,22.3c.13.89.26,1.28.31,1.39.34.97,2.56,6.59,3.21,8.02.55,1.31.76,1.52,1.88,1.8.47.13.63.26.63.39,0,.21-.26.42-.55.42-1.25,0-2.22-.13-3.08-.13-.63,0-1.07.08-1.91.08-.39,0-.63-.18-.63-.37,0-.16.18-.29.63-.39.78-.18,1.04-.6,1.04-.91,0-.21-.44-1.57-.63-1.99-.05-.16-.16-.23-.63-.26-.34-.03-2.14-.03-3.03,0-.5.03-.73.03-.81.16-.18.44-.63,1.49-.63,2.01s.16.76,1.02,1.02c.29.11.57.16.57.42,0,.21-.29.31-.6.31-.68,0-1.23-.08-1.91-.08-.86,0-1.51.13-2.17.13-.24,0-.52-.11-.52-.31s.26-.31.63-.42c.92-.24,1.28-.44,1.96-1.7.42-.84,2.56-5.91,2.9-6.74.34-.78.55-1.36.6-1.7.03-.13.13-.29.31-.47.16-.24.47-.45.65-.68.21-.29.31-.31.44-.31.1,0,.26.13.29.31M107.25,29.01c-.47-1.25-1.36-3.5-1.49-3.82,0-.03-.21-.13-.26-.03-.47,1.2-1.18,2.82-1.57,3.89,0,.08.08.23.18.23.47.03,2.53.05,2.95-.03.08,0,.23-.13.18-.26"></path><path class="cls-2" d="M115.02,22.35c.63,0,1.18.03,1.46.03.63,0,1.65-.1,3.82-.1,1.7,0,2.85.39,3.4.97.65.6.94,1.28.94,2.06,0,1.83-1.46,2.64-2.25,2.87-.05.03-.13.13-.1.16.52.99,1.57,2.69,2.64,3.89.6.65,1.44,1.31,2.17,1.44.39.08.47.13.47.37,0,.31-.6.47-1.57.47-1.07,0-2.04-.36-3.16-1.62-.47-.52-1.93-2.87-2.35-3.5-.24-.37-.99-.71-1.59-.71-.1,0-.24.03-.42.18-.05.05-.1.13-.1.21,0,.55.03,1.93.08,3.35.03.78.47.89,1.15,1.1.21.05.52.18.52.39,0,.31-.44.36-.71.36-.84,0-1.39-.08-2.04-.08-.81,0-1.62.18-2.43.18-.44,0-.71-.13-.71-.31,0-.16.21-.37.65-.47,1.18-.29,1.36-.52,1.41-1.67.03-.52.13-2.8.13-5.25,0-1.12.03-1.78-.03-2.4-.05-.55-.08-.97-1.38-1.18-.39-.08-.65-.24-.65-.42s.31-.31.65-.31M118.7,23.16c-.13.05-.26.21-.26.42,0,.26-.08,3.92-.08,4.15,0,.16.1.29.26.29,1.15,0,2.48-.21,2.82-.45.39-.29,1.1-.97,1.1-2.01s-.84-2.53-3.11-2.53c-.26,0-.55.05-.73.13"></path><path class="cls-2" d="M129.03,22.32c.21.03,2.04.08,2.8.08.81,0,1.96-.08,2.54-.16.18-.03.57.16.57.29,0,.18-.34.42-.65.47-1.25.36-1.36.57-1.41,1.51-.05.58-.05,1.91-.05,3.61,0,1.49,0,2.82.03,3.37.05,1.49.24,1.73,1.46,2.01.31.08.6.29.6.52,0,.18-.26.24-.52.24-.73,0-1.44-.08-2.56-.08-.76,0-2.14.13-2.64.13-.39,0-.63-.1-.63-.29,0-.23.39-.42.63-.5,1.25-.31,1.49-.6,1.54-1.59.03-.47.05-1.28.05-2.14,0-2.74,0-4.57-.03-4.99-.08-1.12-.52-1.46-1.54-1.75-.47-.16-.55-.34-.55-.5,0-.1.08-.26.37-.23"></path><path class="cls-2" d="M137.48,22.3c.34,0,1.1.1,2.27.1.89,0,2.01-.05,2.72-.1.21-.03.39.1.39.23,0,.18-.21.39-.84.55-.65.16-1.1.52-1.15.97-.1,1.02-.13,4.55-.13,6.27,0,.86.05,1.67.1,2.43,0,.16.29.52.57.55.78.1,1.88.1,2.4.03.44-.05.78-.05,1.15-.34.42-.31.89-.84,1.28-1.49.31-.5.5-.6.68-.6.16,0,.24.47.13.71-.31.57-.63,1.33-.97,2.19-.11.26-.26.44-.37.47-.26.08-.86.05-1.65.05-.99,0-2.25-.13-4.08-.13s-2.04.1-2.93.1c-.44,0-.71-.13-.71-.31,0-.21.16-.37.73-.47,1.33-.21,1.52-.76,1.57-1.44.03-.52.08-.99.08-4.55,0-1.02,0-2.12-.03-3.14-.03-.78-.26-1.1-1.18-1.31-.68-.13-.76-.37-.76-.55,0-.13.24-.23.68-.23"></path><path class="cls-2" d="M149.07,22.3c.34,0,1.1.1,2.27.1.89,0,2.01-.05,2.72-.1.21-.03.39.1.39.23,0,.18-.21.39-.84.55-.65.16-1.1.52-1.15.97-.1,1.02-.13,4.55-.13,6.27,0,.86.05,1.67.1,2.43,0,.16.29.52.57.55.78.1,1.88.1,2.4.03.44-.05.78-.05,1.15-.34.42-.31.89-.84,1.28-1.49.31-.5.5-.6.68-.6.16,0,.24.47.13.71-.31.57-.63,1.33-.97,2.19-.11.26-.26.44-.37.47-.26.08-.86.05-1.65.05-.99,0-2.25-.13-4.08-.13s-2.04.1-2.93.1c-.44,0-.71-.13-.71-.31,0-.21.16-.37.73-.47,1.33-.21,1.52-.76,1.57-1.44.03-.52.08-.99.08-4.55,0-1.02,0-2.12-.03-3.14-.03-.78-.26-1.1-1.18-1.31-.68-.13-.76-.37-.76-.55,0-.13.24-.23.68-.23"></path><path class="cls-2" d="M167.11,22.3c.13.89.26,1.28.31,1.39.34.97,2.56,6.59,3.21,8.02.55,1.31.76,1.52,1.88,1.8.47.13.63.26.63.39,0,.21-.26.42-.55.42-1.25,0-2.22-.13-3.08-.13-.63,0-1.07.08-1.91.08-.39,0-.63-.18-.63-.37,0-.16.18-.29.63-.39.78-.18,1.05-.6,1.05-.91,0-.21-.44-1.57-.63-1.99-.05-.16-.16-.23-.63-.26-.34-.03-2.14-.03-3.03,0-.5.03-.73.03-.81.16-.18.44-.63,1.49-.63,2.01s.16.76,1.02,1.02c.29.11.57.16.57.42,0,.21-.29.31-.6.31-.68,0-1.23-.08-1.91-.08-.86,0-1.52.13-2.17.13-.24,0-.52-.11-.52-.31s.26-.31.63-.42c.92-.24,1.28-.44,1.96-1.7.42-.84,2.56-5.91,2.9-6.74.34-.78.55-1.36.6-1.7.03-.13.13-.29.31-.47.16-.24.47-.45.65-.68.21-.29.31-.31.44-.31.1,0,.26.13.29.31M167.45,29.01c-.47-1.25-1.36-3.5-1.49-3.82,0-.03-.21-.13-.26-.03-.47,1.2-1.18,2.82-1.57,3.89,0,.08.08.23.18.23.47.03,2.54.05,2.95-.03.08,0,.24-.13.18-.26"></path><path class="cls-2" d="M181.48,19.95c-.08-1.2-.08-1.59-1.54-1.86-.57-.1-.73-.29-.73-.47,0-.21.29-.31.65-.31.68,0,1.99.08,2.85.08,1.28,0,1.88-.08,2.8-.08.42,0,.65.1.65.31s-.26.37-.68.44c-1.51.31-1.49.97-1.59,1.67-.13.86-.16,2.56-.16,7.68,0,1.44.03,3.06.08,3.89.08,1.41.21,1.91,1.91,2.25.47.08.68.26.68.44,0,.21-.39.34-.71.34-1.33,0-3.19-.16-3.89-.16-.78,0-1.02.05-1.99.05-.5,0-.68-.18-.68-.37s.26-.34.78-.44c1.31-.29,1.41-.68,1.52-1.91.08-.91.13-3.63.13-5.85,0-1.62-.03-4.86-.08-5.72"></path><path class="cls-2" d="M187.98,22.27c.6,0,2.35.13,2.95.13.21,0,.34.13.52.37.5.63,1.07,1.2,1.75,1.99.71.84,4.1,4.52,5.43,5.93.03.03.18.05.18-.1.03-1.44.16-4.86.03-6.12-.08-.76-.37-1.18-1.62-1.46-.21-.08-.55-.18-.55-.42,0-.29.55-.29.63-.29.89,0,1.57.1,2.22.1.52,0,1.18-.1,1.83-.1.26,0,.55.1.55.29s-.13.26-.55.42c-1.02.29-1.23.63-1.33,1.65-.1.99-.24,4.34-.24,5.85s.08,3.19.08,3.37c0,.42-.1.7-.34.7-.18,0-.57-.21-.78-.39-.44-.52-1.46-1.91-2.9-3.45-1.2-1.31-3.03-3.55-4.57-5.17-.05-.08-.24-.08-.24.1-.03.89-.16,4.68-.03,6.4.08.84.68,1.2,1.46,1.46.29.11.47.21.47.39,0,.26-.37.34-.6.34-.08,0-.89-.08-1.62-.08-.65,0-1.75.16-2.33.16-.34,0-.63-.08-.63-.34,0-.13.1-.23.6-.36,1.25-.31,1.41-.78,1.49-1.44.05-.65.21-3.14.21-5.41,0-1.23-.03-1.96-.05-2.17-.03-.21-.42-.86-.94-1.25-.24-.18-.52-.31-1.07-.42-.47-.08-.68-.21-.68-.42,0-.1.31-.26.65-.26"></path><path class="cls-2" d="M203.74,22.27c.6,0,2.35.13,2.95.13.21,0,.34.13.52.37.5.63,1.07,1.2,1.75,1.99.71.84,4.1,4.52,5.43,5.93.03.03.18.05.18-.1.03-1.44.16-4.86.03-6.12-.08-.76-.37-1.18-1.62-1.46-.21-.08-.55-.18-.55-.42,0-.29.55-.29.63-.29.89,0,1.57.1,2.22.1.52,0,1.18-.1,1.83-.1.26,0,.55.1.55.29s-.13.26-.55.42c-1.02.29-1.23.63-1.33,1.65-.1.99-.24,4.34-.24,5.85s.08,3.19.08,3.37c0,.42-.1.7-.34.7-.18,0-.58-.21-.78-.39-.44-.52-1.46-1.91-2.9-3.45-1.2-1.31-3.03-3.55-4.57-5.17-.05-.08-.24-.08-.24.1-.03.89-.16,4.68-.03,6.4.08.84.68,1.2,1.46,1.46.29.11.47.21.47.39,0,.26-.37.34-.6.34-.08,0-.89-.08-1.62-.08-.65,0-1.75.16-2.33.16-.34,0-.63-.08-.63-.34,0-.13.1-.23.6-.36,1.25-.31,1.41-.78,1.49-1.44.05-.65.21-3.14.21-5.41,0-1.23-.03-1.96-.05-2.17-.03-.21-.42-.86-.94-1.25-.24-.18-.52-.31-1.07-.42-.47-.08-.68-.21-.68-.42,0-.1.31-.26.65-.26"></path><path class="cls-2" d="M72.8,9.59s0,.04-.01.12c-.03.25-.17.95-.23,1.4-.02.16-.07.35-.33.35-.15,0-.26-.08-.32-.32-.07-.25-.09-.65-.44-.91-.26-.2-.82-.24-1.2-.24-.12,0-.15.05-.17.14l-1.06,5.23c-.1.47-.13.75-.13.91,0,.62.54.46.54.77,0,.13-.13.22-.34.22h-1.93c-.17,0-.26-.09-.26-.21,0-.13.12-.2.25-.25.18-.08.3-.19.39-.31.11-.15.22-.36.37-1.13l1.04-5.17c.01-.06.02-.1.02-.12,0-.04-.02-.08-.11-.08-.58,0-.92.02-1.28.25-.34.21-.55.54-.77.9-.13.22-.24.33-.39.33-.15,0-.31-.09-.31-.27,0-.15.06-.29.19-.82.07-.25.11-.52.18-.73.08-.24.23-.31.52-.31.33,0,.9.08,1.87.08h1.63c.98,0,1.58-.08,1.91-.08.23,0,.38.04.38.25"></path><path class="cls-2" d="M79.37,16.41c0,.13-.12.32-.38.55-.27.24-.65.42-.98.42-.39,0-.8-.25-.8-.9,0-.8.63-2.71.63-3.57,0-.21-.02-.37-.12-.5-.07-.09-.2-.16-.37-.16-.45,0-1.04.44-1.65,1.53-.51.91-.8,1.72-1.01,2.61l-.15.7c-.02.1-.08.14-.19.17l-.7.12c-.07.01-.08.01-.09.01-.07,0-.1-.04-.1-.1,0-.01,0-.02.01-.08l1.27-6.22c.07-.33.11-.57.11-.75,0-.51-.68-.33-.68-.65,0-.15.11-.23.38-.26.4-.04.77-.13,1.15-.25.07-.02.12-.03.18-.03.14,0,.23.07.23.21,0,.01,0,.02-.01.08l-.81,4.02c-.01.05-.01.07-.01.07,0,.01,0,.04.03.04.02,0,.03-.03.06-.07.69-1.22,1.54-2,2.42-2,.78,0,1.14.53,1.14,1.26,0,1.07-.6,2.97-.6,3.62,0,.19.06.3.21.3.26,0,.45-.35.68-.35.1,0,.17.08.17.18"></path><path class="cls-2" d="M81.94,14.69c-.03.2-.04.37-.04.55,0,.76.34,1.44,1.16,1.44.91,0,1.48-.76,1.81-.76.11,0,.2.1.2.21,0,.14-.13.35-.55.67-.46.35-1.11.58-1.74.58-1.17,0-2.01-.78-2.01-2.1,0-1.66,1.51-3.88,3.47-3.88.82,0,1.55.47,1.55,1.32,0,.55-.36,1.12-1.16,1.49-.59.28-1.34.37-2.07.37-.16,0-.33,0-.49-.01-.09,0-.12.04-.13.11M84.32,13.5c.32-.25.51-.56.51-.87,0-.41-.32-.68-.75-.68-.9,0-1.67,1.04-1.94,1.9-.02.08-.02.1-.02.11,0,.06.03.08.09.08.99-.01,1.63-.15,2.12-.54"></path><path class="cls-2" d="M61.51,17.49c.52.1.7.13.99.21.1,0,.31.21.31.63.03.63.36,1.88.36,2.88,0,.34-.16.57-.34.57-.16,0-.31-.21-.47-.6-.26-.71-.6-1.33-.99-1.83-.58-.71-2.09-1.62-4.18-1.62-4.47,0-7.11,3.66-7.11,7.79,0,1.86.42,3.5,1.18,4.76,1.39,2.35,3.89,3.61,6.32,3.61.31,0,1.62-.16,2.35-.63.21-.13.55-1.02.55-1.36,0-.91-.03-2.4-.08-2.72-.18-.6-.39-1.1-2.35-1.23-.39-.03-.68-.23-.68-.44,0-.18.29-.37.78-.37.47,0,2.38.1,3.14.1.63,0,1.52-.1,2.35-.1.42,0,.7.13.7.34,0,.18-.29.34-.6.44-.78.23-.84.52-.94.81-.11.29-.13,2.17-.13,3.24,0,.42.24.68.37.76.47.26.44.34.44.47,0,.11-.1.29-.39.37-.47.13-1.36.34-2.38.63-1.12.31-2.74.47-3.61.47-2.93,0-5.36-.94-6.95-2.38-1.2-1.15-2.69-3.29-2.69-6.43,0-2.32.81-4.7,2.95-6.59,1.65-1.46,4.15-2.35,6.69-2.35,1.91,0,3.29.34,4.39.58"></path><path class="cls-2" d="M72.77,22.3c.13.89.26,1.28.31,1.39.34.97,2.56,6.59,3.21,8.02.55,1.31.76,1.52,1.88,1.8.47.13.63.26.63.39,0,.21-.26.42-.55.42-1.25,0-2.22-.13-3.08-.13-.63,0-1.07.08-1.91.08-.39,0-.63-.18-.63-.37,0-.16.18-.29.63-.39.78-.18,1.05-.6,1.05-.91,0-.21-.44-1.57-.63-1.99-.05-.16-.16-.23-.63-.26-.34-.03-2.14-.03-3.03,0-.5.03-.73.03-.81.16-.18.44-.63,1.49-.63,2.01s.16.76,1.02,1.02c.29.11.58.16.58.42,0,.21-.29.31-.6.31-.68,0-1.23-.08-1.91-.08-.86,0-1.52.13-2.17.13-.24,0-.52-.11-.52-.31s.26-.31.63-.42c.91-.24,1.28-.44,1.96-1.7.42-.84,2.56-5.91,2.9-6.74.34-.78.55-1.36.6-1.7.03-.13.13-.29.31-.47.16-.24.47-.45.65-.68.21-.29.31-.31.44-.31.1,0,.26.13.29.31M73.11,29.01c-.47-1.25-1.36-3.5-1.49-3.82,0-.03-.21-.13-.26-.03-.47,1.2-1.18,2.82-1.57,3.89,0,.08.08.23.18.23.47.03,2.53.05,2.95-.03.08,0,.24-.13.18-.26"></path><path class="cls-2" d="M87.81,22.4c.18.03.26.34.26.63,0,.76.03,1.36-.03,1.7-.08.5-.29.57-.37.57-.24,0-.34-.31-.42-.63-.21-.76-.55-1.17-.89-1.46-.34-.29-.94-.52-1.57-.52-1.31,0-2.19.91-2.19,2.04,0,.89.73,1.59,1.62,2.09.84.47,1.54.81,2.3,1.26,1.1.63,1.99,1.59,1.99,3.06,0,1.2-.81,2.2-1.57,2.67-.55.36-1.75.81-2.9.81-1.57,0-2.69-.37-3.29-.81-.21-.13-.26-.39-.29-.55-.03-.31-.24-1.57-.24-1.96,0-.5.18-.71.36-.71.24,0,.31.29.42.57.13.34.39.89.6,1.23.65.86,1.57,1.49,2.72,1.49,1.46,0,2.17-1.05,2.17-1.93,0-1.02-.55-1.57-1.51-2.17-.78-.47-1.49-.84-2.07-1.2-.94-.6-2.14-1.62-2.14-3.19,0-1.96,1.62-3.4,4.23-3.4,1.33,0,2.06.31,2.8.42"></path><path class="cls-2" d="M90.94,22.35c.55,0,1.12.05,1.65.05.89,0,1.96-.11,2.69-.11,1.72,0,2.9.37,3.55.94.81.73,1.18,1.67,1.18,2.69,0,1.2-.65,2.14-1.31,2.69-.55.55-1.57.73-2.12.73-.29,0-.55-.05-.81-.13-.31-.11-.42-.24-.42-.37,0-.16.16-.29.58-.29,1.02,0,2.06-1.05,2.06-2.48,0-.97-.34-1.75-.86-2.27-.47-.47-1.36-.84-1.88-.84-.21,0-.71.12-.92.24-.08.05-.19.29-.21.42-.16.99-.05,7.74-.05,8.28,0,1.07.29,1.36,1.44,1.62.29.08.55.21.55.39,0,.26-.44.34-.65.34-1.07,0-1.54-.08-2.04-.08-.68,0-2.01.1-2.77.1-.42,0-.63-.08-.63-.31,0-.16.13-.29.63-.44.97-.24,1.33-.47,1.41-1.41.05-.65.08-1.02.08-1.83,0-.55-.03-5.51-.05-6.06-.03-.63-.08-.89-1.28-1.12-.34-.08-.55-.24-.55-.42,0-.29.5-.34.73-.34"></path><path class="cls-2" d="M106.91,22.3c.13.89.26,1.28.31,1.39.34.97,2.56,6.59,3.21,8.02.55,1.31.76,1.52,1.88,1.8.47.13.63.26.63.39,0,.21-.26.42-.55.42-1.25,0-2.22-.13-3.08-.13-.63,0-1.07.08-1.91.08-.39,0-.63-.18-.63-.37,0-.16.18-.29.63-.39.78-.18,1.04-.6,1.04-.91,0-.21-.44-1.57-.63-1.99-.05-.16-.16-.23-.63-.26-.34-.03-2.14-.03-3.03,0-.5.03-.73.03-.81.16-.18.44-.63,1.49-.63,2.01s.16.76,1.02,1.02c.29.11.57.16.57.42,0,.21-.29.31-.6.31-.68,0-1.23-.08-1.91-.08-.86,0-1.51.13-2.17.13-.24,0-.52-.11-.52-.31s.26-.31.63-.42c.92-.24,1.28-.44,1.96-1.7.42-.84,2.56-5.91,2.9-6.74.34-.78.55-1.36.6-1.7.03-.13.13-.29.31-.47.16-.24.47-.45.65-.68.21-.29.31-.31.44-.31.1,0,.26.13.29.31M107.25,29.01c-.47-1.25-1.36-3.5-1.49-3.82,0-.03-.21-.13-.26-.03-.47,1.2-1.18,2.82-1.57,3.89,0,.08.08.23.18.23.47.03,2.53.05,2.95-.03.08,0,.23-.13.18-.26"></path><path class="cls-2" d="M115.02,22.35c.63,0,1.18.03,1.46.03.63,0,1.65-.1,3.82-.1,1.7,0,2.85.39,3.4.97.65.6.94,1.28.94,2.06,0,1.83-1.46,2.64-2.25,2.87-.05.03-.13.13-.1.16.52.99,1.57,2.69,2.64,3.89.6.65,1.44,1.31,2.17,1.44.39.08.47.13.47.37,0,.31-.6.47-1.57.47-1.07,0-2.04-.36-3.16-1.62-.47-.52-1.93-2.87-2.35-3.5-.24-.37-.99-.71-1.59-.71-.1,0-.24.03-.42.18-.05.05-.1.13-.1.21,0,.55.03,1.93.08,3.35.03.78.47.89,1.15,1.1.21.05.52.18.52.39,0,.31-.44.36-.71.36-.84,0-1.39-.08-2.04-.08-.81,0-1.62.18-2.43.18-.44,0-.71-.13-.71-.31,0-.16.21-.37.65-.47,1.18-.29,1.36-.52,1.41-1.67.03-.52.13-2.8.13-5.25,0-1.12.03-1.78-.03-2.4-.05-.55-.08-.97-1.38-1.18-.39-.08-.65-.24-.65-.42s.31-.31.65-.31M118.7,23.16c-.13.05-.26.21-.26.42,0,.26-.08,3.92-.08,4.15,0,.16.1.29.26.29,1.15,0,2.48-.21,2.82-.45.39-.29,1.1-.97,1.1-2.01s-.84-2.53-3.11-2.53c-.26,0-.55.05-.73.13"></path><path class="cls-2" d="M129.03,22.32c.21.03,2.04.08,2.8.08.81,0,1.96-.08,2.54-.16.18-.03.57.16.57.29,0,.18-.34.42-.65.47-1.25.36-1.36.57-1.41,1.51-.05.58-.05,1.91-.05,3.61,0,1.49,0,2.82.03,3.37.05,1.49.24,1.73,1.46,2.01.31.08.6.29.6.52,0,.18-.26.24-.52.24-.73,0-1.44-.08-2.56-.08-.76,0-2.14.13-2.64.13-.39,0-.63-.1-.63-.29,0-.23.39-.42.63-.5,1.25-.31,1.49-.6,1.54-1.59.03-.47.05-1.28.05-2.14,0-2.74,0-4.57-.03-4.99-.08-1.12-.52-1.46-1.54-1.75-.47-.16-.55-.34-.55-.5,0-.1.08-.26.37-.23"></path><path class="cls-2" d="M137.48,22.3c.34,0,1.1.1,2.27.1.89,0,2.01-.05,2.72-.1.21-.03.39.1.39.23,0,.18-.21.39-.84.55-.65.16-1.1.52-1.15.97-.1,1.02-.13,4.55-.13,6.27,0,.86.05,1.67.1,2.43,0,.16.29.52.57.55.78.1,1.88.1,2.4.03.44-.05.78-.05,1.15-.34.42-.31.89-.84,1.28-1.49.31-.5.5-.6.68-.6.16,0,.24.47.13.71-.31.57-.63,1.33-.97,2.19-.11.26-.26.44-.37.47-.26.08-.86.05-1.65.05-.99,0-2.25-.13-4.08-.13s-2.04.1-2.93.1c-.44,0-.71-.13-.71-.31,0-.21.16-.37.73-.47,1.33-.21,1.52-.76,1.57-1.44.03-.52.08-.99.08-4.55,0-1.02,0-2.12-.03-3.14-.03-.78-.26-1.1-1.18-1.31-.68-.13-.76-.37-.76-.55,0-.13.24-.23.68-.23"></path><path class="cls-2" d="M149.07,22.3c.34,0,1.1.1,2.27.1.89,0,2.01-.05,2.72-.1.21-.03.39.1.39.23,0,.18-.21.39-.84.55-.65.16-1.1.52-1.15.97-.1,1.02-.13,4.55-.13,6.27,0,.86.05,1.67.1,2.43,0,.16.29.52.57.55.78.1,1.88.1,2.4.03.44-.05.78-.05,1.15-.34.42-.31.89-.84,1.28-1.49.31-.5.5-.6.68-.6.16,0,.24.47.13.71-.31.57-.63,1.33-.97,2.19-.11.26-.26.44-.37.47-.26.08-.86.05-1.65.05-.99,0-2.25-.13-4.08-.13s-2.04.1-2.93.1c-.44,0-.71-.13-.71-.31,0-.21.16-.37.73-.47,1.33-.21,1.52-.76,1.57-1.44.03-.52.08-.99.08-4.55,0-1.02,0-2.12-.03-3.14-.03-.78-.26-1.1-1.18-1.31-.68-.13-.76-.37-.76-.55,0-.13.24-.23.68-.23"></path><path class="cls-2" d="M167.11,22.3c.13.89.26,1.28.31,1.39.34.97,2.56,6.59,3.21,8.02.55,1.31.76,1.52,1.88,1.8.47.13.63.26.63.39,0,.21-.26.42-.55.42-1.25,0-2.22-.13-3.08-.13-.63,0-1.07.08-1.91.08-.39,0-.63-.18-.63-.37,0-.16.18-.29.63-.39.78-.18,1.05-.6,1.05-.91,0-.21-.44-1.57-.63-1.99-.05-.16-.16-.23-.63-.26-.34-.03-2.14-.03-3.03,0-.5.03-.73.03-.81.16-.18.44-.63,1.49-.63,2.01s.16.76,1.02,1.02c.29.11.57.16.57.42,0,.21-.29.31-.6.31-.68,0-1.23-.08-1.91-.08-.86,0-1.52.13-2.17.13-.24,0-.52-.11-.52-.31s.26-.31.63-.42c.92-.24,1.28-.44,1.96-1.7.42-.84,2.56-5.91,2.9-6.74.34-.78.55-1.36.6-1.7.03-.13.13-.29.31-.47.16-.24.47-.45.65-.68.21-.29.31-.31.44-.31.1,0,.26.13.29.31M167.45,29.01c-.47-1.25-1.36-3.5-1.49-3.82,0-.03-.21-.13-.26-.03-.47,1.2-1.18,2.82-1.57,3.89,0,.08.08.23.18.23.47.03,2.54.05,2.95-.03.08,0,.24-.13.18-.26"></path><path class="cls-2" d="M181.48,19.95c-.08-1.2-.08-1.59-1.54-1.86-.57-.1-.73-.29-.73-.47,0-.21.29-.31.65-.31.68,0,1.99.08,2.85.08,1.28,0,1.88-.08,2.8-.08.42,0,.65.1.65.31s-.26.37-.68.44c-1.51.31-1.49.97-1.59,1.67-.13.86-.16,2.56-.16,7.68,0,1.44.03,3.06.08,3.89.08,1.41.21,1.91,1.91,2.25.47.08.68.26.68.44,0,.21-.39.34-.71.34-1.33,0-3.19-.16-3.89-.16-.78,0-1.02.05-1.99.05-.5,0-.68-.18-.68-.37s.26-.34.78-.44c1.31-.29,1.41-.68,1.52-1.91.08-.91.13-3.63.13-5.85,0-1.62-.03-4.86-.08-5.72"></path><path class="cls-2" d="M187.98,22.27c.6,0,2.35.13,2.95.13.21,0,.34.13.52.37.5.63,1.07,1.2,1.75,1.99.71.84,4.1,4.52,5.43,5.93.03.03.18.05.18-.1.03-1.44.16-4.86.03-6.12-.08-.76-.37-1.18-1.62-1.46-.21-.08-.55-.18-.55-.42,0-.29.55-.29.63-.29.89,0,1.57.1,2.22.1.52,0,1.18-.1,1.83-.1.26,0,.55.1.55.29s-.13.26-.55.42c-1.02.29-1.23.63-1.33,1.65-.1.99-.24,4.34-.24,5.85s.08,3.19.08,3.37c0,.42-.1.7-.34.7-.18,0-.57-.21-.78-.39-.44-.52-1.46-1.91-2.9-3.45-1.2-1.31-3.03-3.55-4.57-5.17-.05-.08-.24-.08-.24.1-.03.89-.16,4.68-.03,6.4.08.84.68,1.2,1.46,1.46.29.11.47.21.47.39,0,.26-.37.34-.6.34-.08,0-.89-.08-1.62-.08-.65,0-1.75.16-2.33.16-.34,0-.63-.08-.63-.34,0-.13.1-.23.6-.36,1.25-.31,1.41-.78,1.49-1.44.05-.65.21-3.14.21-5.41,0-1.23-.03-1.96-.05-2.17-.03-.21-.42-.86-.94-1.25-.24-.18-.52-.31-1.07-.42-.47-.08-.68-.21-.68-.42,0-.1.31-.26.65-.26"></path><path class="cls-2" d="M203.74,22.27c.6,0,2.35.13,2.95.13.21,0,.34.13.52.37.5.63,1.07,1.2,1.75,1.99.71.84,4.1,4.52,5.43,5.93.03.03.18.05.18-.1.03-1.44.16-4.86.03-6.12-.08-.76-.37-1.18-1.62-1.46-.21-.08-.55-.18-.55-.42,0-.29.55-.29.63-.29.89,0,1.57.1,2.22.1.52,0,1.18-.1,1.83-.1.26,0,.55.1.55.29s-.13.26-.55.42c-1.02.29-1.23.63-1.33,1.65-.1.99-.24,4.34-.24,5.85s.08,3.19.08,3.37c0,.42-.1.7-.34.7-.18,0-.58-.21-.78-.39-.44-.52-1.46-1.91-2.9-3.45-1.2-1.31-3.03-3.55-4.57-5.17-.05-.08-.24-.08-.24.1-.03.89-.16,4.68-.03,6.4.08.84.68,1.2,1.46,1.46.29.11.47.21.47.39,0,.26-.37.34-.6.34-.08,0-.89-.08-1.62-.08-.65,0-1.75.16-2.33.16-.34,0-.63-.08-.63-.34,0-.13.1-.23.6-.36,1.25-.31,1.41-.78,1.49-1.44.05-.65.21-3.14.21-5.41,0-1.23-.03-1.96-.05-2.17-.03-.21-.42-.86-.94-1.25-.24-.18-.52-.31-1.07-.42-.47-.08-.68-.21-.68-.42,0-.1.31-.26.65-.26"></path><path class="cls-2" d="M72.8,9.59s0,.04-.01.12c-.03.25-.17.95-.23,1.4-.02.16-.07.35-.33.35-.15,0-.26-.08-.32-.32-.07-.25-.09-.65-.44-.91-.26-.2-.82-.24-1.2-.24-.12,0-.15.05-.17.14l-1.06,5.23c-.1.47-.13.75-.13.91,0,.62.54.46.54.77,0,.13-.13.22-.34.22h-1.93c-.17,0-.26-.09-.26-.21,0-.13.12-.2.25-.25.18-.08.3-.19.39-.31.11-.15.22-.36.37-1.13l1.04-5.17c.01-.06.02-.1.02-.12,0-.04-.02-.08-.11-.08-.58,0-.92.02-1.28.25-.34.21-.55.54-.77.9-.13.22-.24.33-.39.33-.15,0-.31-.09-.31-.27,0-.15.06-.29.19-.82.07-.25.11-.52.18-.73.08-.24.23-.31.52-.31.33,0,.9.08,1.87.08h1.63c.98,0,1.58-.08,1.91-.08.23,0,.38.04.38.25"></path><path class="cls-2" d="M79.37,16.41c0,.13-.12.32-.38.55-.27.24-.65.42-.98.42-.39,0-.8-.25-.8-.9,0-.8.63-2.71.63-3.57,0-.21-.02-.37-.12-.5-.07-.09-.2-.16-.37-.16-.45,0-1.04.44-1.65,1.53-.51.91-.8,1.72-1.01,2.61l-.15.7c-.02.1-.08.14-.19.17l-.7.12c-.07.01-.08.01-.09.01-.07,0-.1-.04-.1-.1,0-.01,0-.02.01-.08l1.27-6.22c.07-.33.11-.57.11-.75,0-.51-.68-.33-.68-.65,0-.15.11-.23.38-.26.4-.04.77-.13,1.15-.25.07-.02.12-.03.18-.03.14,0,.23.07.23.21,0,.01,0,.02-.01.08l-.81,4.02c-.01.05-.01.07-.01.07,0,.01,0,.04.03.04.02,0,.03-.03.06-.07.69-1.22,1.54-2,2.42-2,.78,0,1.14.53,1.14,1.26,0,1.07-.6,2.97-.6,3.62,0,.19.06.3.21.3.26,0,.45-.35.68-.35.1,0,.17.08.17.18"></path><path class="cls-2" d="M81.94,14.69c-.03.2-.04.37-.04.55,0,.76.34,1.44,1.16,1.44.91,0,1.48-.76,1.81-.76.11,0,.2.1.2.21,0,.14-.13.35-.55.67-.46.35-1.11.58-1.74.58-1.17,0-2.01-.78-2.01-2.1,0-1.66,1.51-3.88,3.47-3.88.82,0,1.55.47,1.55,1.32,0,.55-.36,1.12-1.16,1.49-.59.28-1.34.37-2.07.37-.16,0-.33,0-.49-.01-.09,0-.12.04-.13.11M84.32,13.5c.32-.25.51-.56.51-.87,0-.41-.32-.68-.75-.68-.9,0-1.67,1.04-1.94,1.9-.02.08-.02.1-.02.11,0,.06.03.08.09.08.99-.01,1.63-.15,2.12-.54"></path></g></g></g><g id="PMS_Green_Pirate_Outline"><g class="cls-5"><g class="cls-4"><path class="cls-2" d="M22.41,23.34c-1.4,1.17-2.69,2.72-2.89,4.56-.11,1.03.32,2.27,1.09,2.86.74.58,1.76.29,2.15-.57.28-.48.45-1.09.62-1.72.06-.28.49-.26.53.02.19,1.05.11,2.29-.62,3.2-.87,1.07-2.59,1.17-3.64.3-1.83-1.51-1.55-4.48-.41-6.23.74-1.18,1.73-2.12,2.84-2.87.28-.19.58.22.32.43"></path><path class="cls-2" d="M28.45,27.49c-.14,1.65-.28,3.27-.6,4.81-.39,1.73-1.02,3.25-2.29,4.27-1.16.88-2.33,1.76-3.3,2.87-1.2,1.24-2.02,2.85-2.41,4.51-.04.13.04.27.17.32.14.05.3-.02.34-.16.28-.77.61-1.5,1.05-2.15,1.1-1.71,2.95-2.63,4.68-3.58,3.63-2.23,3.62-7.24,2.89-10.92-.06-.31-.52-.27-.53.03"></path><path class="cls-2" d="M33.4,26.12c-.55-.02-.74.77-.24,1.01,1.39.66,2.31,1.28,2.95,2.16.48.67.8,1.49,1.03,2.61.03.12.03.25.07.38.06.14.16.12.22.03.22-.34.28-1.84.24-2.03-.1-2.2-2.04-4.17-4.27-4.15"></path><path class="cls-2" d="M40.59,43.19c-1.06-1.83-.89-3.69-.68-5.84.03-.36.07-.72.1-1.09.02-.3.05-.59.07-.89.2-2.4.4-4.67-.16-7.04-.59-2.48-2.6-4.98-4.96-6.25.18-.11.37-.22.56-.33,1.54-.9,3.28-1.91,3.86-4.4.29-1.23.19-2.54-.28-3.69-.46-1.13-1.16-2.1-1.84-3.05-1.87-2.61-3.61-4.91-5.88-6.77C26.3-.27,20.92-1.08,14.91,1.4c-5.75,2.37-9.88,7.48-10.57,13.05-1.03,1.64-1.95,3.37-2.76,5.11-.66,1.49-2.54,4.76-.96,6.12.24.2.59.27.87.35.67.2,1.51.32,2.13.49.27.08.51.2.76.32-.06.31-.2.65-.3.97-.17.53-.22,1.22.09,1.73.09.15.21.27.35.36,0,.03.01.07.02.1.09.37.19.79,0,1-.11.15-.28.26-.47.39-.21.14-.44.3-.66.55-1.16,1.51-.96,4.35.41,5.75l.04.04c1.98,1.62,5.01.71,6.46.27l.05-.02c1.25-.52,3.54-1.01,4.23.42.15.43.2.94.26,1.48.09.89.19,1.89.82,2.62-1.84,3.3-2.5,7.23-2.08,10.98.02.13.1.3.24.38.16.11.39.12.42.12.2,0,.4-.12.48-.32.66-1.6,1.83-2.98,3.31-3.88.77-.47,1.6-.81,2.49-1.16.45-.18.92-.37,1.38-.58,3.76-1.72,6.88-4.87,8.57-8.64,1.04-2.34,1.63-4.65,1.76-6.81,1.3.18,2.46.96,3.12,2.14.58,1.05.77,1.98.99,3.07.1.48.19.97.34,1.52.65,2.51,1.72,4.02,3.27,4.62.06.02.12.03.19.03.15,0,.29-.06.4-.18.14-.17.16-.41.05-.6M11.09,16.91c-.07,0-.13-.01-.2-.02-.46-.05-.99-.11-1.56-.19-.97-.17-1.9-.45-2.69-.98l-.57-.44c-.08-.07-.16-.15-.24-.23,4.88-.47,8.54-.33,10.36.39.28.11.63.31,1.04.54.59.33,1.26.7,1.99.97-.39.03-.77.05-1.13.09-2.33.15-4.67.11-6.99-.12M15.89,39.8c-.06-.59-.12-1.2-.32-1.75l-.02-.04c-.89-1.89-3.43-1.85-5.56-.97-1.94.59-4.09,1.03-5.45-.06-.99-1.04-1.15-3.27-.33-4.34.11-.13.27-.24.44-.35.24-.16.5-.35.69-.6.38-.44.37-.97.29-1.44.19.01.38.02.55.02.54,0,1.07-.04,1.58-.1.18-.02.32-.17.33-.35,0-.2-.15-.37-.35-.38-.51-.02-1.02-.04-1.51-.09-.37-.05-.9-.02-1.15-.26-.21-.2-.08-.62.01-.94.08-.28.19-.56.26-.85.46.12,1.02-.04,1.38-.21.68-.28,1.25-.75,1.87-.99.09-.02.13-.05.17-.02.14.1.27.9.48,1.18.23.35.65.44,1.05.37.36-.07.88-.21.88-.54,0-.09-.05-.22-.17-.23-.32-.08-.64-.07-.9-.17,0-.03-.05-.13-.06-.2-.09-.34-.13-.68-.33-1.01-.18-.3-.53-.51-.88-.55-1.2-.05-2.03,1.08-3.11,1.27-.12.01-.2-.01-.4-.11-.43-.23-.93-.48-1.43-.63-.91-.23-1.65-.3-2.51-.55-.38-.08-.35-.59-.33-.94.13-1.33.88-2.72,1.44-3.94.72-1.54,1.49-3.02,2.36-4.47.27.31.57.59.89.84-.01.23-.03.47-.05.7-.12,1.41-.25,3,.59,4.27.67,1.01,1.88,1.63,3.13,1.63.09,0,.18,0,.27,0,1.26-.09,2.46-.79,3.22-1.88.6-.85.9-1.88.9-2.95,1.43.05,2.87.03,4.31-.05.8-.05,1.59-.12,2.38-.21.38-.05.82-.06,1.32-.28.32-.17.52-.36.68-.61.38-.17.76-.4,1.15-.64.86-.53,1.76-1.08,2.62-.9.54.11.94.4,1.19.87.2.37.29.85.28,1.36-.09.5-.25.98-.49,1.43-.4.77-1.05,1.53-1.54,2.53-.51.99-.63,2.17-.5,3.25.12.99.39,1.99,1.01,2.85-.31,2.28-1.51,4.39-3,6.23-1.91,2.47-4.51,4.29-6.44,6.77-.2.27-.39.54-.57.81-.25-.47-.31-1.09-.37-1.74M29.53,38.98c-1.58,3.55-4.52,6.51-8.05,8.12-.44.2-.9.39-1.34.56-.88.36-1.79.73-2.64,1.24-1.21.73-2.23,1.75-2.99,2.94-.05-1.91.2-3.83.74-5.67.35-1.16.81-2.28,1.4-3.33,1.2-2.15,3.07-3.76,4.85-5.46,2.72-2.65,5.35-5.84,5.82-9.75.02-.12-.02-.26-.1-.37-.43-.71-.63-1.62-.66-2.5-.02-.87.09-1.71.53-2.46.51-.93,1.53-2.01,1.99-3.19,1.17-2.93.12-6.34-2.51-8.08-1.62-1.23-3.52-2.19-5.55-2.47-.14-.02-.28.05-.34.18-.09.17-.02.37.15.45,2.11,1.07,4.06,2.42,5.74,4.02.45.47.78,1.03,1,1.64-.3-.21-.66-.36-1.05-.44-1.27-.26-2.39.42-3.38,1.03-.38.23-.74.45-1.07.6-1.43.63-3.05-.27-4.35-1-.44-.24-.82-.46-1.16-.59-2.53-1-7.31-.81-11.12-.43.83-4.93,4.72-9.56,9.86-11.68C20.93.04,25.97.79,30.71,4.66c2.17,1.77,3.86,4.02,5.69,6.57.65.9,1.31,1.83,1.73,2.84.39.95.47,2.03.23,3.06-.48,2.05-1.88,2.87-3.37,3.74-.47.27-.94.55-1.38.87-.01,0-.03.02-.04.03-.69.5-1.31,1.11-1.71,1.96-.25.54-.32,1.07-.38,1.53-.1.72-.17,1.29-.81,1.83-.17.14-.23.38-.15.58.3.77.5,1.59.61,2.45.07.58.11,1.19.1,1.81,0,.05,0,.16,0,.21-.07,2.15-.63,4.48-1.69,6.85M39.05,35.29c-.03.3-.05.59-.07.89-.03.36-.06.72-.1,1.07-.15,1.61-.3,3.16.09,4.69-.53-.67-.95-1.62-1.28-2.88-.13-.51-.23-1-.32-1.46-.22-1.12-.44-2.18-1.1-3.37-.83-1.49-2.33-2.49-4-2.68-.01-1.39-.23-2.72-.65-3.93.7-.73.8-1.52.9-2.23.06-.43.11-.84.29-1.23.27-.57.67-1.02,1.16-1.4,2.29,1.02,4.39,3.47,4.94,5.82.52,2.21.33,4.39.14,6.71"></path></g></g></g></svg> 