<svg xmlns="http://www.w3.org/2000/svg" width="369" height="97.522" viewBox="0 0 369 97.522">
  <g id="Group_68289" data-name="Group 68289" transform="translate(-68 -27)">
    <path id="Path_61278" data-name="Path 61278" d="M16.321,53.26V84.369H54.679V53.26H68.963v73.91H54.679V95.956H16.321V127.17H2.037V53.26Z" transform="translate(66.596 -9.724)" fill="#14225c"/>
    <path id="Path_61279" data-name="Path 61279" d="M16.321,53.26V84.369H54.679V53.26H68.963v73.91H54.679V95.956H16.321V127.17H2.037V53.26Z" transform="translate(66.596 -9.724)" fill="none"/>
    <rect id="Rectangle_147825" data-name="Rectangle 147825" width="369" height="97.522" transform="translate(68 27)" fill="none"/>
    <path id="Path_61280" data-name="Path 61280" d="M338.5,53.26V64.423H312.259V127.17H297.974V64.423H271.733V53.26Z" transform="translate(-119.37 -9.724)" fill="#14225c"/>
    <path id="Path_61281" data-name="Path 61281" d="M338.5,53.26V64.423H312.259V127.17H297.974V64.423H271.733V53.26Z" transform="translate(-119.37 -9.724)" fill="none"/>
    <path id="Path_61282" data-name="Path 61282" d="M545.733,53.259l32.643,73.911H563.3l-7.672-17.988H522.772L515.63,127.17H500.657l30.474-73.911ZM527.11,98.335h23.861L538.485,69.078Z" transform="translate(-277.224 -9.725)" fill="#14225c"/>
    <path id="Path_61283" data-name="Path 61283" d="M545.733,53.259l32.643,73.911H563.3l-7.672-17.988H522.772L515.63,127.17H500.657l30.474-73.911ZM527.11,98.335h23.861L538.485,69.078Z" transform="translate(-277.224 -9.725)" fill="none"/>
    <rect id="Rectangle_147826" data-name="Rectangle 147826" width="369" height="97.522" transform="translate(68 27)" fill="none"/>
    <line id="Line_4128" data-name="Line 4128" transform="translate(395.319 91.104)" fill="none" stroke="#e1061d" stroke-width="6.348"/>
    <rect id="Rectangle_147827" data-name="Rectangle 147827" width="369" height="97.522" transform="translate(68 27)" fill="none"/>
    <line id="Line_4129" data-name="Line 4129" transform="translate(352.051 78.308)" fill="none" stroke="#e1061d" stroke-width="6.348"/>
    <path id="Path_61288" data-name="Path 61288" d="M981.57,302.415l-.081.023q.7.223,1.4.436c.236.071.476.135.713.2l.113-.033Z" transform="translate(-608.777 -181.527)" fill="#13235a"/>
    <path id="Path_61289" data-name="Path 61289" d="M809.233,91.05c-3.707-4.169-15.742-19.529-5.655-32.754,5.3-6.869,15.583-11.588,27.128-14.472,13.845-3.412,30.13-4.153,40.65-2.753.314.042,3.846,4.516,5.492,7.47a63.658,63.658,0,0,1,5.617,12.171s-40.277-9.494-63.872-2.206c0,0-28.49,8.561-9.372,30.232" transform="translate(-483.385 -0.859)" fill="#95bf28"/>
    <path id="Path_61290" data-name="Path 61290" d="M905.273,24.453A126.535,126.535,0,0,1,926.447,21.6a51.944,51.944,0,0,1,9.9-5.68c-7.33-4-19.2-6.39-31.078,8.531" transform="translate(-556.223 18.106)" fill="#00408f"/>
    <path id="Path_61291" data-name="Path 61291" d="M809.233,91.05c-3.707-4.169-15.742-19.529-5.655-32.754,5.3-6.869,15.583-11.588,27.128-14.472,13.845-3.412,30.13-4.153,40.65-2.753.314.042,3.846,4.516,5.492,7.47a63.658,63.658,0,0,1,5.617,12.171s-40.277-9.494-63.872-2.206c0,0-28.49,8.561-9.372,30.232" transform="translate(-483.385 -0.859)" fill="#95bf28"/>
    <path id="Path_61292" data-name="Path 61292" d="M844.714,138.858c-1.317-20.557,16.413-44.7,19.7-48.984-8.322-.142-16.7.467-23.7,2.483-4.8,7.073-9.986,19.529-10.215,30.478l0,0,.01,1.976c.013.345.03.689.053,1.03.743,10.654,2.355,18.048,8.474,24.5,13.627,14.366,40.564,6.135,40.564,6.135l-2.145-.629c-32.957,7.544-32.741-16.988-32.741-16.988" transform="translate(-504.662 -34.959)" fill="#00408f"/>
    <path id="Path_61293" data-name="Path 61293" d="M960.8,191.068l-1.514,1.625c1.136,29.2-29.4,19.971-29.4,19.971-21.772-5.337-45.5-27.6-49.983-31.952-2.488,6.63-4.132,13.705-3.779,20.416,6.97,6.254,19.278,13.12,32.669,17.388l.091-.02,2.145.629-.112.033c11.106,3.234,23.326,4.087,32.344,1.264,20.565-6.553,17.537-29.354,17.537-29.354" transform="translate(-536.092 -97.609)" fill="#c2bdbc"/>
    <path id="Path_61294" data-name="Path 61294" d="M884.1,276.059c3.343,6.115,11.3,12.411,30.228,8.1a110.913,110.913,0,0,1-19.292-8.246,51.2,51.2,0,0,1-10.936.142" transform="translate(-541.621 -163.256)" fill="#8dc7e0"/>
    <path id="Path_61295" data-name="Path 61295" d="M815.841,138.078v.032a54.414,54.414,0,0,1,3.508-17.045c-2.148-3-2.477-7.894-2.526-9.108-6.531,4.48-12.7,12.836-.982,26.12" transform="translate(-490.005 -50.2)" fill="#c2bdbc"/>
    <path id="Path_61296" data-name="Path 61296" d="M958.5,16.893C951.774,9.011,943.344,2.6,934.073.657c-20.082-4.234-34.6,13.307-36.3,15.461l.6-.153q.859-.211,1.73-.408c19.187-24.108,38.382-3,38.382-3,.284.3.563.6.839.912.223.232.549.613.936,1.092a44.553,44.553,0,0,1,2.962,4.036c.484.726.934,1.441,1.293,2.084l.044.079q.789,1.345,1.516,2.744a55.368,55.368,0,0,1,3.581,8.066q.234.615.458,1.232l.019.05h0A133.282,133.282,0,0,1,956.9,63.627c6.931-4.154,13.408-9.09,17.658-14.688,0,0,.042-.048.118-.138-1.35-8.274-6.543-19.806-14.268-29.592Z" transform="translate(-551.054 27)" fill="#17225d"/>
    <path id="Path_61297" data-name="Path 61297" d="M1099.5,61.873a80.95,80.95,0,0,1,9.906,16.2,33.289,33.289,0,0,1,8.969,4.859c2.028-6.936.445-16.266-18.875-21.057" transform="translate(-690.154 -15.664)" fill="#95bf28"/>
    <path id="Path_61298" data-name="Path 61298" d="M1103.4,220.664a91.874,91.874,0,0,1-15.312,12.525,23.389,23.389,0,0,1-3.02,8.392c8.538-.25,18.816-4.031,18.332-20.917" transform="translate(-680.201 -125.156)" fill="#17225d"/>
    <path id="Path_61299" data-name="Path 61299" d="M1032.731,104.417c7.247-7.753,12.369-16.049,12.245-24.041-.239-19.28-26.892-25.4-29.552-25.963l1.9,2.316c31.541,7.822,15.812,27.741,14.267,29.591l0,0-.075.089-.02.022-.012.014-.007.008-.007.008q-.363.478-.75.949c-.082.1-.167.2-.251.3-.182.219-.366.437-.554.653q-.146.168-.294.334-.284.319-.577.634c-.094.1-.187.2-.281.3q-.367.387-.745.769l-.141.144q-.459.46-.937.912l-.209.2c-.252.236-.506.471-.764.7l-.292.261q-.365.326-.739.646l-.282.242q-.438.371-.885.737l-.146.119q-1.085.881-2.225,1.731l-.191.141q-.48.356-.969.707l-.2.146q-.534.381-1.077.755l-.072.05q-1.826,1.255-3.731,2.433l-.088.054q-.619.382-1.242.756l0,0c-15.595,9.346-33.49,14.723-33.49,14.723.094.107.194.208.29.314,6.771,4.123,14.065,7.655,21.152,9.393,0,0,.132.039.374.1h.005c9.24-3.515,20.093-10.545,29.028-19.652Z" transform="translate(-607.979 -10.52)" fill="#8dc7e0"/>
    <rect id="Rectangle_147828" data-name="Rectangle 147828" width="369" height="97.522" transform="translate(68 27)" fill="none"/>
    <rect id="Rectangle_147829" data-name="Rectangle 147829" width="368.999" height="97.522" transform="translate(68 27)" fill="none"/>
    <path id="Path_61284" data-name="Path 61284" d="M1054.307,206.478" transform="translate(-658.993 -115.374)" fill="#050605"/>
    <path id="Path_61285" data-name="Path 61285" d="M1054.31,206.478Z" transform="translate(-658.991 -115.374)" fill="none"/>
    <path id="Path_61286" data-name="Path 61286" d="M914.939,165.265" transform="translate(-562.888 -86.957)" fill="#050605"/>
    <path id="Path_61287" data-name="Path 61287" d="M914.939,165.265Z" transform="translate(-562.888 -86.957)" fill="none"/>
  </g>
</svg>
