<svg xmlns="http://www.w3.org/2000/svg" viewBox="0 0 360 192.52"><defs><style>.cls-1{fill:#6d9b40;}.cls-2{fill:#98989a;}</style></defs><g id="Layer_2" data-name="Layer 2"><g id="Layer_1-2" data-name="Layer 1"><path class="cls-1" d="M10.67,130a78,78,0,0,0,.43,9,46.48,46.48,0,0,0,1.57,7.5H0a49,49,0,0,0,1.53-7.42A79.07,79.07,0,0,0,2,130V106a77.23,77.23,0,0,0-.43-9A49.73,49.73,0,0,0,0,89.5H12.63A47.8,47.8,0,0,0,11.1,97a78.74,78.74,0,0,0-.43,9.07v8.63h0L19,104.39q4.89-5.9,7.12-9.17a22.72,22.72,0,0,0,3-5.72H43.46a27.12,27.12,0,0,0-5.38,4.32q-2.92,2.88-7.87,8.9l-9.9,12L32.36,130q7,8.73,10.12,12.37a29.67,29.67,0,0,0,3.9,4.15H31.47a10.85,10.85,0,0,0-1.29-4.15,28.16,28.16,0,0,0-3.3-5.09L10.67,116.84h0Z"/><path class="cls-1" d="M49.07,146.54a46.64,46.64,0,0,0,1.53-7.42A78.78,78.78,0,0,0,51,130V106a77.45,77.45,0,0,0-.44-9A47.55,47.55,0,0,0,49,89.5H80.52l-2.18,4.66-2.22,4.7a25.42,25.42,0,0,0-6.44-2.46A35.75,35.75,0,0,0,62,95.69H59.7v18.67H78.52L75.9,119l-2.62,4.62a19.82,19.82,0,0,0-5.75-2.37,34.07,34.07,0,0,0-7.5-.69H59.7v19.73a85.43,85.43,0,0,0,12.71-1.13A37,37,0,0,0,84.16,135l-2.36,5.75-2.41,5.75H49.07Z"/><path class="cls-1" d="M104.22,120.3l-8-14.27q-4.48-7.86-6.88-11.49a25.09,25.09,0,0,0-4.08-5H99.16a8,8,0,0,0,.19,3,15.11,15.11,0,0,0,1.27,3.55l8.23,16.08h0l8.71-16.09A14.78,14.78,0,0,0,119,92.54a8,8,0,0,0,.31-3H131.7a30.61,30.61,0,0,0-4.93,5.83A119.65,119.65,0,0,0,120.6,106l-7.72,14.52V130a77.76,77.76,0,0,0,.44,9,45.43,45.43,0,0,0,1.57,7.5H102.25a46.64,46.64,0,0,0,1.53-7.42,78.78,78.78,0,0,0,.44-9.1Z"/><path class="cls-1" d="M159.68,100.75a17.72,17.72,0,0,0-5.09-4,12.7,12.7,0,0,0-5.6-1.24,8.38,8.38,0,0,0-5.91,2.17,7.07,7.07,0,0,0-2.35,5.41,7.82,7.82,0,0,0,1.82,5,27.24,27.24,0,0,0,6.45,5.17q7.06,4.51,9.94,8.44a15.17,15.17,0,0,1,2.87,9.18,15.45,15.45,0,0,1-5,11.79,17.78,17.78,0,0,1-12.63,4.7,33.32,33.32,0,0,1-6.48-.55,34.29,34.29,0,0,1-6.3-2V134.17a18.4,18.4,0,0,0,5.42,4.8A12.64,12.64,0,0,0,143,140.5a10.34,10.34,0,0,0,7-2.42,7.67,7.67,0,0,0,2.78-6.06,8.92,8.92,0,0,0-1.89-5.61,26.63,26.63,0,0,0-6.65-5.46q-6.92-4.36-9.72-8.11a13.93,13.93,0,0,1-2.82-8.6,14.21,14.21,0,0,1,5.11-11.15,18.77,18.77,0,0,1,12.83-4.46,25.47,25.47,0,0,1,5.51.54,17.79,17.79,0,0,1,4.56,1.72Z"/><path class="cls-1" d="M183.22,130V95.69a74.09,74.09,0,0,0-7.76.66,32.18,32.18,0,0,0-10.37,3.05l1.68-4.93,1.67-5H209.5l-1.35,4.72-1.38,4.71a67,67,0,0,0-8.55-2.69,36,36,0,0,0-6.34-.77V130a66.29,66.29,0,0,0,.49,8.58,56.67,56.67,0,0,0,1.73,7.93H181a50.77,50.77,0,0,0,1.72-7.82A69.58,69.58,0,0,0,183.22,130Z"/><path class="cls-1" d="M215.48,138.92q-8-8.5-8-21.35A27.59,27.59,0,0,1,216,96.87q8.53-8.24,21.39-8.24a26.46,26.46,0,0,1,20.13,8.52q8,8.5,8,21.36A27.52,27.52,0,0,1,257,139.17q-8.53,8.25-21.42,8.25A26.45,26.45,0,0,1,215.48,138.92Zm35.29-4.3a21.11,21.11,0,0,0,5.33-14.72q0-10.49-5.84-17.42a18.43,18.43,0,0,0-14.69-6.94,17.25,17.25,0,0,0-13.34,5.88,21.12,21.12,0,0,0-5.33,14.76q0,10.45,5.84,17.39a18.37,18.37,0,0,0,14.65,6.93A17.32,17.32,0,0,0,250.77,134.62Z"/><path class="cls-1" d="M279.29,130a78,78,0,0,0,.44,9,45.33,45.33,0,0,0,1.57,7.51H269.68a46.64,46.64,0,0,0,1.53-7.42,78.78,78.78,0,0,0,.44-9.1V97.91c-1.29-1.7-2.39-3.09-3.31-4.19a26.72,26.72,0,0,0-4-4.22h13.54q2.37,4.29,4.53,7.57t5.3,7.31l21.73,28.24V106a77.69,77.69,0,0,0-.44-9,47.67,47.67,0,0,0-1.56-7.53h11.61A47.8,47.8,0,0,0,317.55,97a78.46,78.46,0,0,0-.44,9.07v26.83a60.29,60.29,0,0,0,.55,8.15,18.74,18.74,0,0,0,1.35,5.53H307.4a15.31,15.31,0,0,0-2.1-4.38,66,66,0,0,0-4.49-6.46l-21.52-28.15Z"/><path class="cls-1" d="M324.91,146.54a46.64,46.64,0,0,0,1.53-7.42,79.07,79.07,0,0,0,.43-9.1V106a77.72,77.72,0,0,0-.43-9,47.61,47.61,0,0,0-1.57-7.54h31.49l-2.18,4.66L352,98.86a25.48,25.48,0,0,0-6.45-2.46,35.65,35.65,0,0,0-7.64-.71h-2.33v18.67h18.82L351.74,119l-2.62,4.62a19.88,19.88,0,0,0-5.76-2.37,34,34,0,0,0-7.49-.69h-.33v19.73a85.28,85.28,0,0,0,12.7-1.13A37,37,0,0,0,360,135l-2.37,5.75-2.4,5.75H324.91Z"/><path class="cls-2" d="M21,186.14a13.42,13.42,0,0,0,1,6.07H17a16.42,16.42,0,0,0,1-6.07l0-20.35c-3.67.23-6.49.42-9,1.83l1.34-4.16H30.42a16.41,16.41,0,0,0-1.6,3.86c-1.91-1.11-2.75-1.22-7.64-1.53-.11,1.38-.15,3.29-.15,4.66Z"/><path class="cls-2" d="M52.52,167.36a28.65,28.65,0,0,0-9.46-1.57l.07,2.41v8.36h5.23l4,.07-2.21,3.78A17.13,17.13,0,0,0,43.21,179L43,187.44a8.34,8.34,0,0,0,.11,2.4c6.15-.15,8.67-.65,12.94-2.59l-2.63,5H38.51A12.8,12.8,0,0,0,40,185.57V169.84a16.41,16.41,0,0,0-1.18-6.34H54.58Z"/><path class="cls-2" d="M86.84,190.38a23.87,23.87,0,0,1-9.58,2.14c-9.58,0-14.09-8.17-14.09-14.43,0-7.83,6-14.86,16.07-14.86a31,31,0,0,1,7.1,1v5a12.45,12.45,0,0,0-8.51-3.51c-5.88,0-11,4.85-11,12.44,0,7.33,4.62,11.65,10.61,11.65,4.62,0,7.48-2.29,9.7-4Z"/><path class="cls-2" d="M116.84,183c0,5.69.62,7.56,1.19,9.2h-5.19a19,19,0,0,0,.87-6.76v-6.52H99.93v5.76a21.06,21.06,0,0,0,1.07,7.52H95.77a18.23,18.23,0,0,0,1.07-6.49v-13c-.11-6.22-.11-6.91-1.18-9.2h5.19a18.37,18.37,0,0,0-.92,6.8v6.07l13.78-.16v-6.49a18.63,18.63,0,0,0-1-6.22h5.08a15.24,15.24,0,0,0-1.07,6.07Z"/><path class="cls-2" d="M145.47,181c1.38,1.87,2.75,3.7,4.2,5.5V172.13c0-5.73-.3-6.34-1.41-8.63h5.12c-.73,2-1.07,3-1,7.41v16.3a15.47,15.47,0,0,0,.65,5h-3.28c-.8-1.18-1.49-2.4-2.37-3.55l-14.7-19.2v14.62c0,5.38.54,6.83,1,8.13h-4.59A20.14,20.14,0,0,0,130,186V171.14a43.89,43.89,0,0,0-.23-4.74,23.52,23.52,0,0,0-2.74-2.9h5.72a21.11,21.11,0,0,0,1.87,2.79Z"/><path class="cls-2" d="M177.73,192.52a14.65,14.65,0,0,1,.11-29.29,15.2,15.2,0,0,1,15,14.78c0,2.82-1.19,7.94-5.12,10.76a25.58,25.58,0,0,1-7.06,3.59C180.17,192.4,178.72,192.52,177.73,192.52ZM189.6,179a12.79,12.79,0,0,0-12.9-12.44c-7.75,0-10.19,6.18-10.19,10.95,0,8.33,7,11.84,12.67,11.84,2.79,0,4.47-.84,6.72-2.1C189.53,183.54,189.6,180.11,189.6,179Z"/><path class="cls-2" d="M206,185c0,1.15,0,2.9.15,4.81a31.87,31.87,0,0,0,11.18-1.91l-1.94,4.28H202c.38-1.22.88-2.94.88-7.79V169.57a14.88,14.88,0,0,0-1-6.07H207a16.83,16.83,0,0,0-1,6.91Z"/><path class="cls-2" d="M238.27,192.52a14.65,14.65,0,0,1,.12-29.29,15.19,15.19,0,0,1,15,14.78c0,2.82-1.19,7.94-5.12,10.76a25.58,25.58,0,0,1-7.06,3.59C240.71,192.4,239.26,192.52,238.27,192.52ZM250.14,179a12.79,12.79,0,0,0-12.9-12.44c-7.75,0-10.19,6.18-10.19,10.95,0,8.33,7,11.84,12.67,11.84,2.79,0,4.47-.84,6.72-2.1C250.07,183.54,250.14,180.11,250.14,179Z"/><path class="cls-2" d="M283.81,187.59v-5.42c0-1.37-.15-1.68-1.56-4.58h6.3a6.83,6.83,0,0,0-1.45,3.59c-.08,1.1-.12,5.76-.12,6.41l.08,3.55a31.46,31.46,0,0,1-9.05,1.34c-12.52,0-16.61-8.13-16.61-13.82s4.16-15.46,16.23-15.46a64.42,64.42,0,0,1,9,.87l-.08,5.2a14.35,14.35,0,0,0-9.46-3.48c-6.91,0-11.95,4.93-11.95,11.8,0,4.85,2.86,12.37,13.59,12.37a18,18,0,0,0,5.07-.65Z"/><path class="cls-2" d="M302.06,186.94a14.75,14.75,0,0,0,1.11,5.27h-5.43c1-2.9,1.19-3.51,1.19-6V169.84a12.54,12.54,0,0,0-1.15-6.34h5.39a9.75,9.75,0,0,0-1.15,5.35Z"/><path class="cls-2" d="M326.76,167.36a28.73,28.73,0,0,0-9.47-1.57l.07,2.41v8.36h5.24l4,.07-2.21,3.78a17.13,17.13,0,0,0-6.95-1.45l-.19,8.48a8.34,8.34,0,0,0,.11,2.4c6.15-.15,8.67-.65,12.95-2.59l-2.64,5H312.75a12.91,12.91,0,0,0,1.48-6.64V169.84a16.41,16.41,0,0,0-1.18-6.34h15.77Z"/><path class="cls-2" d="M344.35,166.06a4.92,4.92,0,0,0-4.73,4.89c0,3.13,2.75,4.62,4.89,5.57,3.36,1.49,6.64,2.94,6.64,7.67,0,5-4.51,8.29-9.47,8.29a19.13,19.13,0,0,1-4.24-.77c0-1.45,0-3.85-.11-5.76,1.22,1.68,2.75,3.82,5.46,3.82a4.9,4.9,0,0,0,4.92-5c0-2.74-1.18-3.39-7.67-6.91a6.53,6.53,0,0,1-3.51-6.1,8.26,8.26,0,0,1,8.55-8.48,9.58,9.58,0,0,1,4.2,1.11c-.08,1.49,0,4.58,0,4.69C348.59,168.24,347,166.06,344.35,166.06Z"/><path class="cls-2" d="M252.42,44.17a133.42,133.42,0,0,0-40.94-15l-1.2,9.62a149.08,149.08,0,0,1,33.82,9.94c17.35,7.55,30.68,17.85,38.82,29.95h2.53C279.89,65.51,268.43,53.46,252.42,44.17Z"/><path class="cls-2" d="M148.9,29.14a133.77,133.77,0,0,0-41.32,15c-16,9.29-27.47,21.34-33,34.55h2.53c8.14-12.1,21.47-22.4,38.82-29.95a149.16,149.16,0,0,1,34.44-10.05Z"/><path class="cls-1" d="M205.33,0H154.67a3.6,3.6,0,0,0-3.6,3.6l9.61,63.86a3.61,3.61,0,0,0,3.6,3.61h33a3.61,3.61,0,0,0,3.6-3.61l8-63.86A3.6,3.6,0,0,0,205.33,0ZM194.44,39.71c-.95,16-10.05,16-10.05,16s.49-4.74.64-10.39c0-.58,1.79-13.79,1.55-15.34-.27-1.82-3.24,7.55-3.43,6.8a29.49,29.49,0,0,0-2.9-7.49c-2.1-3.64-4.85-9.15-4.85-9.15,2.48,7,5.33,17.28,6,22.83.18,1.41-9.18-8.87-9.08-7.56S182.8,49.17,182.8,49.17a53.86,53.86,0,0,1-.37,7.27l-.08.44a29.48,29.48,0,0,1-1.54,6.29,6.63,6.63,0,0,1-5.6,3.8c-1.64,0-1.39-1.66-.57-2.54.61-.65,3.25.53,4.91-3a17.79,17.79,0,0,0,1-4.82l-.51-.08s-11.28-.64-12.37-15.61c-.64-8.79,8-16.18-2.17-34.57C165.51,6.31,195.88,15.54,194.44,39.71Z"/></g></g></svg>