<?xml version="1.0" encoding="UTF-8"?>
<svg xmlns="http://www.w3.org/2000/svg" id="Layer_1" version="1.1" viewBox="0 0 585.3 237.4">
  <defs>
    <style>
      .st0 {
        fill: #00497a;
      }
    </style>
  </defs>
  <g>
    <g>
      <path class="st0" d="M120.5,32.4c-46.3,0-84,37.7-84,84s37.7,84,84,84,84-37.7,84-84-37.7-84-84-84ZM120.5,194.9c-43.3,0-78.5-35.2-78.5-78.5S77.2,37.9,120.5,37.9s78.5,35.2,78.5,78.5-35.2,78.5-78.5,78.5h0Z"></path>
      <path class="st0" d="M192,103.3l-42.8-24.7,2.8-4.8-4.8-2.7-26.8,46.4-26.8-46.4-4.8,2.7,2.8,4.8-42.4,24.5-.3.2,27.4,47.5,37.3-21.5-20.2,35,4.7,2.7,22.3-38.6,22.3,38.6,4.8-2.7-20.2-35,37.3,21.5,27.4-47.5h0ZM82.4,128.4l-11-19,19-11,11,19-19,11ZM139.7,95.3l38,21.9-8.2,14.3-38-22,8.2-14.2h0Z"></path>
    </g>
    <g>
      <path class="st0" d="M278.9,77.5c0-8.5-6.2-14.4-15-14.4h-19.7v46.7h7.4v-17.8h12.4c8.8,0,15-5.9,15-14.4ZM271.3,77.5c0,4.7-3.4,7.9-8.3,7.9h-11.5v-15.8h11.5c4.9,0,8.3,3.3,8.3,7.9Z"></path>
      <path class="st0" d="M315,109.8h8.1l-18.5-46.6h0c0-.1-9-.1-9-.1l-18.5,46.4v.3c-.1,0,8,0,8,0l3.8-9.6h22.4l3.7,9.4h0q0,.1,0,.1ZM309,93.7h-18.1l9-23.7,9.1,23.7Z"></path>
      <polygon class="st0" points="335.5 63.1 328.1 63.1 328.1 109.8 356.5 109.8 356.5 103.3 335.5 103.3 335.5 63.1"></polygon>
      <polygon class="st0" points="386.3 96 373 63.2 373 63.1 362.7 63.1 362.7 109.8 370 109.8 370 73.9 384.6 109.7 384.7 109.8 387.9 109.8 402.5 73.9 402.5 109.8 409.9 109.8 409.9 63.1 399.6 63.1 386.3 96"></polygon>
      <polygon class="st0" points="420.2 109.8 451.7 109.8 451.7 103.3 427.6 103.3 427.6 89.3 451.2 89.3 451.2 82.8 427.6 82.8 427.6 69.6 451.7 69.6 451.7 63.1 420.2 63.1 420.2 109.8"></polygon>
      <path class="st0" d="M467.5,92h8.4l11,17.7h0c0,.1,8.6.1,8.6.1l-11.9-18.6c5.3-.8,11.4-4.9,11.4-13.7s-6.1-14.4-15.1-14.4h-19.7v46.7h7.4v-17.8h0ZM487.4,77.5c0,4.7-3.5,7.9-8.4,7.9h-11.5v-15.8h11.5c4.9,0,8.4,3.3,8.4,7.9Z"></path>
      <path class="st0" d="M244.2,155.1c0,5.4-3.3,8.8-8.5,8.8s-5.7-1.3-8.2-4.1l-.2-.2-3.5,5.5h0c0,.1.1.3.1.3,3.1,3.5,7.1,5.1,12.3,5.1,9.6,0,15.3-5.7,15.3-15.3v-32.2h-7.4v32.1h0Z"></path>
      <path class="st0" d="M282.9,122.2c-13.6,0-23.5,10.2-23.5,24.2s9.9,24.2,23.5,24.2,23.5-10.2,23.5-24.2-9.9-24.2-23.5-24.2ZM282.9,128.8c9.4,0,16,7.2,16,17.6s-6.6,17.6-16,17.6-16-7.2-16-17.6,6.4-17.6,16-17.6h0Z"></path>
      <polygon class="st0" points="347.1 142.4 321.9 142.4 321.9 123 314.6 123 314.6 169.7 321.9 169.7 321.9 149 347.1 149 347.1 169.7 354.5 169.7 354.5 123 347.1 123 347.1 142.4"></polygon>
      <polygon class="st0" points="397.1 157.2 372.3 123 372.2 123 364.8 123 364.8 169.7 372.1 169.7 372.1 134.6 397.4 169.6 397.4 169.7 404.5 169.7 404.5 123 397.1 123 397.1 157.2"></polygon>
      <path class="st0" d="M431.3,141.9c-5.4-1.4-10.6-2.7-10.6-6.7s3.4-6.3,8.5-6.3,10,1.9,13.3,5.3l.2.2,4.2-5.3h.1c0-.1-.1-.3-.1-.3-4.3-4.3-10-6.5-17-6.5s-16.6,5.6-16.6,13.4,8.5,11.7,16,13.7h.2c5.9,1.6,11,2.9,11,7.6s-2.6,6.9-9.9,6.9-12.2-4-14.4-6.5l-.2-.2-4.2,5.7h.1c4.4,5,10.8,7.6,18.4,7.6,13.1,0,17.7-7.3,17.7-14.2,0-10-9.2-12.5-16.5-14.4h0Z"></path>
      <path class="st0" d="M476.3,122.2c-13.6,0-23.5,10.2-23.5,24.2s9.9,24.2,23.5,24.2,23.5-10.2,23.5-24.2-9.9-24.2-23.5-24.2ZM476.3,128.8c9.4,0,16,7.2,16,17.6s-6.6,17.6-16,17.6-16-7.2-16-17.6,6.4-17.6,16-17.6Z"></path>
      <polygon class="st0" points="540.3 123 540.3 157.2 515.5 123 515.4 123 508 123 508 169.7 515.3 169.7 515.3 134.6 540.6 169.6 540.6 169.7 547.7 169.7 547.7 123 540.3 123"></polygon>
    </g>
  </g>
  <g>
    <path class="st0" d="M228.4,204.5v-14.3h5.1c4.5,0,7.4,3.1,7.4,7.2s-3,7.2-7.4,7.2h-5.1ZM230.5,202.6h3c3.3,0,5.2-2.4,5.2-5.3s-1.8-5.3-5.2-5.3h-3v10.6Z"></path>
    <path class="st0" d="M251.8,204.5l-3.4-5.5h-2.7v5.5h-2.2v-14.3h6c2.7,0,4.6,1.8,4.6,4.4s-1.7,4-3.6,4.2l3.7,5.7h-2.5ZM249.3,192.1h-3.6v5h3.6c1.5,0,2.7-1,2.7-2.5s-1.1-2.5-2.7-2.5Z"></path>
    <path class="st0" d="M256.8,204.5v-14.3h2.2v14.3h-2.2Z"></path>
    <path class="st0" d="M266.4,204.5l-5.7-14.3h2.5l4.6,12,4.6-12h2.5l-5.7,14.3h-2.7Z"></path>
    <path class="st0" d="M276.5,204.5v-14.3h9.6v1.9h-7.5v4.2h7.3v1.9h-7.3v4.5h7.5v1.9h-9.6Z"></path>
    <path class="st0" d="M292.3,204.5v-12.4h-4.5v-1.9h11v1.9h-4.4v12.4h-2.1Z"></path>
    <path class="st0" d="M309.4,204.5l-3.4-5.5h-2.7v5.5h-2.2v-14.3h6c2.7,0,4.6,1.8,4.6,4.4s-1.7,4-3.6,4.2l3.7,5.7h-2.5ZM306.9,192.1h-3.6v5h3.6c1.5,0,2.7-1,2.7-2.5s-1.1-2.5-2.7-2.5Z"></path>
    <path class="st0" d="M324.6,204.5l-1.2-3h-7l-1.2,3h-2.4l5.7-14.3h2.7l5.7,14.3h-2.4ZM320,192.1l-2.9,7.6h5.8l-2.9-7.6Z"></path>
    <path class="st0" d="M328.7,204.5v-14.3h2.2v14.3h-2.2Z"></path>
    <path class="st0" d="M344.2,204.5l-7.9-11v11h-2.2v-14.3h2.2l7.8,10.8v-10.8h2.2v14.3h-2.1Z"></path>
    <path class="st0" d="M354.3,205v-16.5h1.3v16.5h-1.3Z"></path>
    <path class="st0" d="M363.7,204.5v-14.3h9.6v1.9h-7.5v4.2h7.3v1.9h-7.3v4.5h7.5v1.9h-9.6Z"></path>
    <path class="st0" d="M386.1,204.5l-7.9-11v11h-2.2v-14.3h2.2l7.8,10.8v-10.8h2.2v14.3h-2.1Z"></path>
    <path class="st0" d="M398.3,189.9c2.7,0,4.5,1.2,5.7,2.8l-1.7,1c-.8-1.1-2.3-1.9-3.9-1.9-3,0-5.2,2.3-5.2,5.5s2.2,5.5,5.2,5.5,2.9-.8,3.6-1.4v-2.6h-4.6v-1.9h6.8v5.3c-1.4,1.5-3.4,2.5-5.8,2.5-4.1,0-7.4-3-7.4-7.4s3.3-7.4,7.4-7.4Z"></path>
    <path class="st0" d="M406.8,204.5v-14.3h2.2v14.3h-2.2Z"></path>
    <path class="st0" d="M422.2,204.5l-7.9-11v11h-2.2v-14.3h2.2l7.8,10.8v-10.8h2.2v14.3h-2.1Z"></path>
    <path class="st0" d="M427.5,204.5v-14.3h9.6v1.9h-7.5v4.2h7.3v1.9h-7.3v4.5h7.5v1.9h-9.6Z"></path>
    <path class="st0" d="M440.2,200.8c1,1.1,2.5,2,4.5,2s3.1-1.2,3.1-2.2c0-1.5-1.6-1.9-3.5-2.4-2.3-.6-5-1.3-5-4.2s2.1-4.1,5.1-4.1,4,.7,5.2,2l-1.2,1.6c-1.1-1.2-2.6-1.7-4.1-1.7s-2.7.8-2.7,2,1.5,1.7,3.3,2.1c2.3.6,5.1,1.4,5.1,4.4s-1.5,4.3-5.4,4.3-4.4-.9-5.7-2.3l1.2-1.7Z"></path>
    <path class="st0" d="M457.4,205v-16.5h1.3v16.5h-1.3Z"></path>
    <path class="st0" d="M467.1,200.8c1,1.1,2.5,2,4.5,2s3.1-1.2,3.1-2.2c0-1.5-1.6-1.9-3.5-2.4-2.3-.6-5-1.3-5-4.2s2.1-4.1,5.1-4.1,4,.7,5.2,2l-1.2,1.6c-1.1-1.2-2.6-1.7-4.1-1.7s-2.7.8-2.7,2,1.5,1.7,3.3,2.1c2.3.6,5.1,1.4,5.1,4.4s-1.5,4.3-5.4,4.3-4.4-.9-5.7-2.3l1.2-1.7Z"></path>
    <path class="st0" d="M479.5,204.5v-14.3h9.6v1.9h-7.5v4.2h7.3v1.9h-7.3v4.5h7.5v1.9h-9.6Z"></path>
    <path class="st0" d="M500.1,204.5l-3.4-5.5h-2.7v5.5h-2.2v-14.3h6c2.7,0,4.6,1.8,4.6,4.4s-1.7,4-3.6,4.2l3.7,5.7h-2.5ZM497.6,192.1h-3.6v5h3.6c1.5,0,2.7-1,2.7-2.5s-1.1-2.5-2.7-2.5Z"></path>
    <path class="st0" d="M509.1,204.5l-5.7-14.3h2.5l4.6,12,4.6-12h2.5l-5.7,14.3h-2.7Z"></path>
    <path class="st0" d="M519.2,204.5v-14.3h2.2v14.3h-2.2Z"></path>
    <path class="st0" d="M523.9,197.4c0-4.4,3.3-7.4,7.4-7.4s4.6,1.4,5.7,3l-1.8,1c-.8-1.2-2.2-2.1-3.9-2.1-2.9,0-5.1,2.3-5.1,5.5s2.2,5.5,5.1,5.5,3.1-.9,3.9-2.1l1.8,1c-1.1,1.7-2.9,3-5.7,3-4.1,0-7.4-3-7.4-7.4Z"></path>
    <path class="st0" d="M539.1,204.5v-14.3h9.6v1.9h-7.5v4.2h7.3v1.9h-7.3v4.5h7.5v1.9h-9.6Z"></path>
  </g>
</svg>
