<svg id="Layer_1" data-name="Layer 1" xmlns="http://www.w3.org/2000/svg" xmlns:xlink="http://www.w3.org/1999/xlink" viewBox="0 0 448.97 88.3"><defs><style>.cls-1{fill:#12284b;}.cls-2{fill:url(#linear-gradient);}</style><linearGradient id="linear-gradient" x1="-1.45" y1="1.45" x2="83.95" y2="86.85" gradientUnits="userSpaceOnUse"><stop offset="0" stop-color="#007aad"/><stop offset="0.2" stop-color="#0094ce"/><stop offset="0.39" stop-color="#00a7e6"/><stop offset="0.5" stop-color="#00aeef"/><stop offset="0.61" stop-color="#00a7e6"/><stop offset="0.8" stop-color="#0094ce"/><stop offset="1" stop-color="#007aad"/></linearGradient></defs><path class="cls-1" d="M127.83,20.83c0,4.84-3.41,7.76-8.79,7.76h-5.56V38h-4V13H119C124.42,13,127.83,16,127.83,20.83Zm-4.21,0c0-2.84-1.62-4.35-5.22-4.35h-4.92v8.66h4.92C122,25.14,123.62,23.67,123.62,20.83Z"/><path class="cls-1" d="M148,19.09V38h-3.6L144.21,35c-1.28,2.38-3.63,3.44-6.7,3.44-3.78,0-6.81-1.93-6.81-6.85V19.09h4.05V30.48c0,3.52,1.52,4.58,3.9,4.58,2.88,0,5.3-1.74,5.3-5.75V19.09Z"/><path class="cls-1" d="M164.87,19.09l-.65,3.71a4.89,4.89,0,0,0-2.38-.49c-2.27,0-4.77,1.81-4.77,5.67V38h-4V19.09h3.44l.38,3.37a5.9,5.9,0,0,1,5.94-3.75A4.94,4.94,0,0,1,164.87,19.09Z"/><path class="cls-1" d="M183.87,24l-3.79,1.51c-.64-2.34-2.08-3.59-4.43-3.59-3.37,0-5.33,2.38-5.33,6.66s2,6.58,5.33,6.58a4.3,4.3,0,0,0,4.66-3.67L184,32.75c-1.06,3.45-3.9,5.64-8.29,5.64-6,0-9.5-3.67-9.5-9.84s3.52-9.84,9.42-9.84C180.23,18.71,182.69,20.9,183.87,24Z"/><path class="cls-1" d="M204.72,25.75V38h-4.05V27c0-3.75-1.74-5-4-5-2.5,0-5.15,1.63-5.15,6V38h-4.05V10.57h4.05V22.12a6.51,6.51,0,0,1,6.13-3.41C201.62,18.71,204.72,21,204.72,25.75Z"/><path class="cls-1" d="M227.28,35.21,227,37.94a6,6,0,0,1-2.35.45c-2,0-3.44-.75-3.86-2.84-1.17,1.82-3.59,2.84-6.39,2.84-3.56,0-6.17-1.66-6.17-5,0-2.91,2.42-5.07,7.38-5.94l4.81-.87v-1a3.51,3.51,0,0,0-3.86-3.75,4.69,4.69,0,0,0-4.89,3.41l-3.14-1.67c.91-3,3.82-4.92,8-4.92,4.73,0,8,2.16,8,6.7V34c0,.95.37,1.4,1.4,1.4A5.23,5.23,0,0,0,227.28,35.21Zm-6.85-3.48V29.46l-4.13.83c-2.57.49-3.86,1.36-3.86,2.88s1.06,2.16,2.84,2.16C217.81,35.33,220.43,34,220.43,31.73Z"/><path class="cls-1" d="M229.4,34.42l2.72-2.35c1,2.27,3.22,3.14,5.87,3.14s4-1,4-2.27-1.1-1.85-4.39-2.5C232,29.38,230,27.76,230,24.58s2.88-5.87,8-5.87c4.2,0,6.59,1.36,7.95,4.28l-2.88,2.12a4.87,4.87,0,0,0-5-3.22c-2.35,0-3.94,1.13-3.94,2.31,0,1.36,1.1,2.08,4.66,2.72,5.41,1,7.34,2.61,7.34,5.76,0,3.33-3,5.71-8.25,5.71C234.17,38.39,231,37.18,229.4,34.42Z"/><path class="cls-1" d="M266.78,30.06H252.93c.45,3.34,2.42,5.11,5.49,5.11,2.49,0,4.16-.9,4.77-2.57l3.36,1.4c-1.36,2.8-4,4.39-8.13,4.39-6,0-9.5-3.67-9.5-9.84s3.33-9.84,9.23-9.84c5.68,0,8.78,3.78,8.78,9.27A15,15,0,0,1,266.78,30.06ZM253,27h10.18c-.38-3.18-2.16-5-5-5S253.38,23.71,253,27Z"/><path class="cls-1" d="M282.77,19.09l-.64,3.71a4.93,4.93,0,0,0-2.39-.49c-2.27,0-4.77,1.81-4.77,5.67V38h-4.05V19.09h3.45l.38,3.37a5.89,5.89,0,0,1,5.94-3.75A4.89,4.89,0,0,1,282.77,19.09Z"/><path class="cls-1" d="M297.72,13h9.84c6,0,8.67,2.58,8.67,6.85a5.3,5.3,0,0,1-4.47,5.45v0a5.74,5.74,0,0,1,5.11,5.72c0,4.27-3.22,6.92-9.16,6.92h-10Zm9.54,10.75c3.18,0,4.77-1.21,4.77-3.67s-1.59-3.67-4.77-3.67h-5.57v7.34Zm.64,10.86c3.18,0,4.77-1.36,4.77-3.74s-1.59-3.75-4.77-3.75h-6.21v7.49Z"/><path class="cls-1" d="M338,19.09V38h-3.6L334.24,35c-1.28,2.38-3.63,3.44-6.7,3.44-3.78,0-6.81-1.93-6.81-6.85V19.09h4V30.48c0,3.52,1.52,4.58,3.9,4.58,2.88,0,5.3-1.74,5.3-5.75V19.09Z"/><path class="cls-1" d="M341.57,34.42l2.73-2.35c1,2.27,3.22,3.14,5.86,3.14s4-1,4-2.27-1.09-1.85-4.39-2.5c-5.64-1.06-7.6-2.68-7.6-5.86s2.87-5.87,7.94-5.87c4.21,0,6.59,1.36,7.95,4.28l-2.87,2.12a4.89,4.89,0,0,0-5-3.22c-2.34,0-3.93,1.13-3.93,2.31,0,1.36,1.09,2.08,4.65,2.72,5.41,1,7.34,2.61,7.34,5.76,0,3.33-3,5.71-8.25,5.71C346.34,38.39,343.16,37.18,341.57,34.42Z"/><path class="cls-1" d="M366.09,38h-4V19.09h4Z"/><path class="cls-1" d="M388.41,25.75V38h-4.05V27c0-3.75-1.75-5-4.05-5-2.5,0-5.15,1.59-5.15,5.94V38h-4.05V19.09h3.59l.19,3.18a6.74,6.74,0,0,1,6.4-3.56C385.3,18.71,388.41,21,388.41,25.75Z"/><path class="cls-1" d="M410.18,30.06H396.33c.45,3.34,2.42,5.11,5.49,5.11,2.5,0,4.16-.9,4.77-2.57L410,34c-1.36,2.8-4,4.39-8.13,4.39-6,0-9.5-3.67-9.5-9.84s3.33-9.84,9.23-9.84c5.68,0,8.78,3.78,8.78,9.27A15,15,0,0,1,410.18,30.06ZM396.37,27h10.18c-.38-3.18-2.16-5-5-5C398.56,21.93,396.78,23.71,396.37,27Z"/><path class="cls-1" d="M412.94,34.42l2.73-2.35c1,2.27,3.22,3.14,5.87,3.14s4-1,4-2.27-1.09-1.85-4.39-2.5c-5.63-1.06-7.6-2.68-7.6-5.86s2.87-5.87,8-5.87c4.2,0,6.58,1.36,7.94,4.28l-2.87,2.12a4.89,4.89,0,0,0-5-3.22c-2.34,0-3.93,1.13-3.93,2.31,0,1.36,1.09,2.08,4.65,2.72,5.41,1,7.35,2.61,7.35,5.76,0,3.33-3,5.71-8.26,5.71C417.71,38.39,414.53,37.18,412.94,34.42Z"/><path class="cls-1" d="M432.28,34.42,435,32.07c1,2.27,3.21,3.14,5.86,3.14s4.05-1,4.05-2.27-1.1-1.85-4.39-2.5c-5.64-1.06-7.61-2.68-7.61-5.86s2.88-5.87,7.95-5.87c4.2,0,6.59,1.36,7.95,4.28l-2.88,2.12a4.87,4.87,0,0,0-5-3.22c-2.35,0-3.94,1.13-3.94,2.31,0,1.36,1.1,2.08,4.66,2.72,5.41,1,7.34,2.61,7.34,5.76,0,3.33-3,5.71-8.25,5.71C437.05,38.39,433.87,37.18,432.28,34.42Z"/><path class="cls-1" d="M130.36,62.09V75h-3l-.15-3.18c-1.4,2.23-3.94,3.55-7.61,3.55-7,0-11.58-4.84-11.58-12.86s4.69-12.87,11.88-12.87c5.19,0,8.37,1.85,10.3,5.9l-3.71,1.78c-1-2.76-3.37-4.16-6.51-4.16-4.69,0-7.72,3.4-7.72,9.35s2.69,9.38,7.8,9.38c3.78,0,6.7-1.89,6.7-5.75v-.72h-7.65V62.09Z"/><path class="cls-1" d="M147.28,56.07l-.64,3.71a5,5,0,0,0-2.39-.49c-2.27,0-4.76,1.81-4.76,5.68V75h-4.05V56.07h3.44l.38,3.37a5.9,5.9,0,0,1,5.94-3.75A5.05,5.05,0,0,1,147.28,56.07Z"/><path class="cls-1" d="M166.81,65.53c0,6.17-3.52,9.84-9.42,9.84S148,71.7,148,65.53s3.52-9.84,9.43-9.84S166.81,59.36,166.81,65.53Zm-14.76,0c0,4.28,1.93,6.67,5.34,6.67s5.37-2.39,5.37-6.67-2-6.66-5.37-6.66S152.05,61.26,152.05,65.53Z"/><path class="cls-1" d="M186.72,56.07V75h-3.6l-.19-3.07c-1.28,2.38-3.63,3.44-6.7,3.44-3.78,0-6.81-1.93-6.81-6.85V56.07h4.05V67.46c0,3.52,1.52,4.58,3.9,4.58,2.88,0,5.3-1.74,5.3-5.75V56.07Z"/><path class="cls-1" d="M209.54,65.5c0,6.2-3.25,9.87-8.4,9.87a6.7,6.7,0,0,1-6.1-3.44V83h-4V56.07h3.56l.19,3.48a6.87,6.87,0,0,1,6.44-3.86C206.32,55.69,209.54,59.33,209.54,65.5Zm-4,0c0-4.12-2-6.58-5.22-6.58S195,61.33,195,65.31v.45c0,3.94,2.05,6.32,5.23,6.32S205.49,69.66,205.49,65.53Z"/><path class="cls-1" d="M240.39,65.53c0,6.17-3.52,9.84-9.43,9.84s-9.42-3.67-9.42-9.84,3.52-9.84,9.42-9.84S240.39,59.36,240.39,65.53Zm-14.76,0c0,4.28,1.93,6.67,5.33,6.67s5.38-2.39,5.38-6.67-2-6.66-5.38-6.66S225.63,61.26,225.63,65.53Z"/><path class="cls-1" d="M261.35,62.73V75H257.3V64c0-3.75-1.74-5-4.05-5-2.49,0-5.14,1.59-5.14,5.95V75h-4.05V56.07h3.59l.19,3.18a6.74,6.74,0,0,1,6.4-3.56C258.25,55.69,261.35,58,261.35,62.73Z"/><path class="cls-1" d="M296,50V75h-4.09V64.1H279.59V75h-4V50h4V60.61h12.34V50Z"/><path class="cls-1" d="M317.67,67.05H303.82c.45,3.33,2.42,5.11,5.48,5.11,2.5,0,4.17-.91,4.77-2.58l3.37,1.4c-1.36,2.81-4,4.39-8.14,4.39-6,0-9.5-3.67-9.5-9.84s3.33-9.84,9.24-9.84c5.68,0,8.78,3.79,8.78,9.28A16.84,16.84,0,0,1,317.67,67.05Zm-13.82-3.11H314c-.38-3.18-2.16-5-5-5C306.05,58.91,304.27,60.69,303.85,63.94Z"/><path class="cls-1" d="M339.61,72.2l-.27,2.72a5.76,5.76,0,0,1-2.34.45c-2.05,0-3.45-.75-3.86-2.83-1.18,1.81-3.6,2.83-6.4,2.83-3.56,0-6.17-1.66-6.17-5,0-2.92,2.42-5.08,7.38-6l4.81-.87v-1a3.51,3.51,0,0,0-3.86-3.75A4.69,4.69,0,0,0,324,62.28l-3.14-1.67c.91-3,3.83-4.92,7.95-4.92,4.73,0,8,2.16,8,6.7V71c0,.94.38,1.4,1.4,1.4A5.67,5.67,0,0,0,339.61,72.2Zm-6.85-3.49V66.44l-4.13.83c-2.57.5-3.86,1.37-3.86,2.88s1.06,2.16,2.84,2.16C330.15,72.31,332.76,71,332.76,68.71Z"/><path class="cls-1" d="M346.51,69.47c0,1.85.45,2.5,2,2.5a6.1,6.1,0,0,0,2.49-.49l-.45,3.25a7.43,7.43,0,0,1-3.14.64c-3.37,0-4.92-1.66-4.92-5.33V47.56h4.05Z"/><path class="cls-1" d="M365.62,73.75a7.79,7.79,0,0,1-5,1.62c-3.26,0-5.76-1.47-5.79-5.37V59.25h-3.6V56.07h3.6V51.64l4.05-1.13v5.56h6.62v3.18h-6.62V69.32A2.45,2.45,0,0,0,361.61,72a4.29,4.29,0,0,0,3.06-1.22Z"/><path class="cls-1" d="M386.25,62.73V75H382.2V64c0-3.75-1.74-5-4.05-5-2.5,0-5.15,1.63-5.15,6V75H369V47.56H373V59.1a6.51,6.51,0,0,1,6.13-3.41C383.14,55.69,386.25,58,386.25,62.73Z"/><path class="cls-2" d="M82.5,88.3H21.81A21.82,21.82,0,0,1,0,66.48V0H60.68A21.82,21.82,0,0,1,82.5,21.81Z"/><path class="cls-1" d="M43.63,12.83H59.38c7.57,0,9.18,4.27,9.18,7.21A5.93,5.93,0,0,1,65,25.68a7,7,0,0,1,5,7.17c0,5.76-5,8.74-10.07,8.74H43.63ZM52.49,24h4.67c1.86,0,3-.52,3-2.37,0-1.46-1.21-2-3-2H52.49Zm0,10.71h5.2c1.85,0,3.46-.52,3.46-2.73,0-1.7-1-2.62-3.1-2.62H52.49Z"/><path class="cls-1" d="M33.16,71.84A10.08,10.08,0,0,1,25,75.46c-8.5,0-13.73-6.6-13.73-14.78,0-11,7.69-15.34,14.17-15.34,7.33,0,12,4,13.25,10.75H30.18A4.22,4.22,0,0,0,26,52.51c-5.69,0-5.88,6.4-5.88,8.37,0,2.7,1.08,7.41,6.48,7.41,2.06,0,4.15-1,4.59-3.18l-3.07-.31V59.21H39V74.78h-5.6Z"/><path class="cls-1" d="M43.63,46h8.86V56h8.3V46h8.86V74.78H60.79V63.38h-8.3v11.4H43.63Z"/><path class="cls-1" d="M13.64,12.83H29.1c7.82,0,10.56,5.78,10.56,10.47,0,7.55-4.68,11.44-11.28,11.44H22.5v6.85H13.64ZM22.5,28h4.07c2.29,0,5.28-.36,5.28-4.14,0-3.4-2.58-4.13-4.76-4.13H22.5Z"/><path class="cls-1" d="M361.79,10.88h3.27a1.18,1.18,0,0,1,1.18,1.18v3.59a0,0,0,0,1,0,0H363a1.18,1.18,0,0,1-1.18-1.18V10.88A0,0,0,0,1,361.79,10.88Z"/></svg>