<?xml version="1.0" encoding="UTF-8" standalone="no"?>
<!-- Generator: Adobe Illustrator 22.0.1, SVG Export Plug-In . SVG Version: 6.00 Build 0)  -->

<svg
   xmlns:dc="http://purl.org/dc/elements/1.1/"
   xmlns:cc="http://creativecommons.org/ns#"
   xmlns:rdf="http://www.w3.org/1999/02/22-rdf-syntax-ns#"
   xmlns:svg="http://www.w3.org/2000/svg"
   xmlns="http://www.w3.org/2000/svg"
   xmlns:sodipodi="http://sodipodi.sourceforge.net/DTD/sodipodi-0.dtd"
   xmlns:inkscape="http://www.inkscape.org/namespaces/inkscape"
   version="1.1"
   id="Layer_1"
   x="0px"
   y="0px"
   viewBox="0 0 375.60001 88.099996"
   inkscape:version="0.91 r13725"
   sodipodi:docname="Woodard-logo-rgb.svg"
   width="375.60001"
   height="88.099998">
  <metadata
     id="metadata3497">
    <rdf:RDF>
      <cc:Work
         rdf:about="">
        <dc:format>image/svg+xml</dc:format>
        <dc:type
           rdf:resource="http://purl.org/dc/dcmitype/StillImage" />
        <dc:title></dc:title>
      </cc:Work>
    </rdf:RDF>
  </metadata>
  <defs
     id="defs3495" />
  <sodipodi:namedview
     pagecolor="#ffffff"
     bordercolor="#666666"
     borderopacity="1"
     objecttolerance="10"
     gridtolerance="10"
     guidetolerance="10"
     inkscape:pageopacity="0"
     inkscape:pageshadow="2"
     inkscape:window-width="1288"
     inkscape:window-height="727"
     id="namedview3493"
     showgrid="false"
     fit-margin-top="0"
     fit-margin-left="0"
     fit-margin-right="0"
     fit-margin-bottom="0"
     inkscape:zoom="3.0138889"
     inkscape:cx="187.8"
     inkscape:cy="44.049998"
     inkscape:window-x="0"
     inkscape:window-y="0"
     inkscape:window-maximized="0"
     inkscape:current-layer="Layer_1" />
  <style
     type="text/css"
     id="style3447">
	.st0{fill:#DA0014;}
</style>
  <g
     id="g3449"
     transform="translate(-28.2,-22.6)">
    <g
       id="g3451">
      <g
         id="g3453">
        <path
           class="st0"
           d="m 345.3,63.6 29,0 c 14.8,0 20.7,-12.7 20.7,-20.4 0,-14.8 -6.9,-20.4 -19.7,-20.4 l -29.9,0 0,40.8 -0.1,0 z m 18.6,-26.8 5,0 c 5,0 6.5,2.2 6.5,6.4 0,5.4 -2.9,7.9 -7.3,7.9 l -4.2,0 0,-14.3"
           id="path3455"
           inkscape:connector-curvature="0"
           style="fill:#da0014" />
        <path
           class="st0"
           d="m 310.9,37 6,-0.5 c 3.3,-0.3 4.9,0.6 5.1,3.2 0.3,3 -0.5,4.6 -4.7,5 l -5.7,0.5 -0.7,-8.2 0,0 z m -15.9,31 18.5,-1.6 -1.1,-13.1 0.1,0 9.8,12.3 21.9,-1.9 L 330,48 c 5.7,-1 11,-4.8 10.3,-12.9 -0.7,-7.7 -5.9,-11.5 -14.2,-10.8 l -34.6,3 3.5,40.7"
           id="path3457"
           inkscape:connector-curvature="0"
           style="fill:#da0014" />
        <path
           class="st0"
           d="m 268.8,56.9 -7.8,1.5 0.9,-15.4 0.2,0 6.7,13.9 0,0 z m -26.7,21.9 18.6,-3.6 0.4,-5.4 12.1,-2.3 2.1,4.9 18.8,-3.7 -19.5,-37.7 -28.8,5.6 -3.7,42.2"
           id="path3459"
           inkscape:connector-curvature="0"
           style="fill:#da0014" />
        <path
           class="st0"
           d="m 198.9,90.8 28.1,-7 C 241.4,80.2 244,66.5 242.1,59 238.5,44.6 230.4,40.9 218,44 l -29,7.2 9.9,39.6 0,0 z m 11.5,-30.5 4.9,-1.2 c 4.8,-1.2 6.9,0.6 7.9,4.7 1.3,5.2 -0.9,8.4 -5.2,9.4 l -4.1,1 -3.5,-13.9"
           id="path3461"
           inkscape:connector-curvature="0"
           style="fill:#da0014" />
        <path
           class="st0"
           d="m 170,86.7 c -4.5,0.9 -6.8,-2.2 -7.8,-7.3 -1,-5.1 0,-8.8 4.5,-9.7 4.5,-0.9 6.8,2.2 7.8,7.3 1,5.1 0,8.8 -4.5,9.7 l 0,0 z m 2.4,12.2 C 195.4,94.4 194.7,81 192.9,71.8 189.8,56.1 177.2,54 164.1,56.6 c -13.1,2.5 -24,9.2 -21,24.9 1.9,9.1 6.3,21.9 29.3,17.4"
           id="path3463"
           inkscape:connector-curvature="0"
           style="fill:#da0014" />
        <path
           class="st0"
           d="m 118.6,95.2 c -4.6,0.6 -6.6,-2.6 -7.3,-7.8 -0.6,-5.2 0.6,-8.8 5.2,-9.3 4.6,-0.6 6.6,2.6 7.3,7.8 0.6,5.2 -0.6,8.8 -5.2,9.3 l 0,0 z m 1.5,12.4 c 23.3,-2.9 23.5,-16.3 22.4,-25.6 -2,-15.9 -14.4,-18.8 -27.6,-17.2 -13.3,1.6 -24.6,7.5 -22.6,23.4 1,9.2 4.6,22.2 27.8,19.4"
           id="path3465"
           inkscape:connector-curvature="0"
           style="fill:#da0014" />
        <polyline
           class="st0"
           points="38.8,110.5 56.8,110.4 61.3,90.5 61.4,90.5 66.2,110.4 83.9,110.3 94.2,69.5 75.7,69.6 71.7,91.2      71.6,91.2 67.7,69.6 55.2,69.7 51.2,91.2 51.1,91.2 47.2,69.7 28.2,69.8 38.8,110.5    "
           id="polyline3467"
           style="fill:#da0014" />
      </g>
    </g>
    <g
       id="g3469">
      <path
         d="m 281.6,106.3 c 0.8,0.5 2.3,0.8 3.5,0.8 1.9,0 2.9,-1 2.9,-2.4 0,-1.5 -0.9,-2.3 -2.7,-3.4 -2.9,-1.7 -4,-4 -4,-5.9 0,-3.4 2.2,-6.2 6.6,-6.2 1.4,0 2.7,0.4 3.3,0.7 l -0.7,3.5 c -0.6,-0.4 -1.5,-0.7 -2.7,-0.7 -1.7,0 -2.6,1.1 -2.6,2.2 0,1.2 0.6,1.9 2.9,3.3 2.8,1.7 3.8,3.8 3.8,6 0,3.8 -2.8,6.4 -6.9,6.4 -1.7,0 -3.3,-0.4 -4,-0.8 l 0.6,-3.5 z"
         id="path3471"
         inkscape:connector-curvature="0" />
      <path
         d="m 298.3,91.2 c 0,1.3 -0.9,2.2 -2.1,2.2 -1.1,0 -2.1,-0.9 -2,-2.2 0,-1.4 1,-2.2 2.1,-2.2 1.1,-0.1 2,0.8 2,2.2 z m -4.1,19.2 0,-15.2 4.1,0 0,15.2 -4.1,0 z"
         id="path3473"
         inkscape:connector-curvature="0" />
      <path
         d="m 301.1,99.8 c 0,-1.7 -0.1,-3.1 -0.1,-4.6 l 3.5,0 0.2,1.7 0.1,0 c 0.8,-1.2 2.1,-2 3.7,-2 2.9,0 4,2.3 4,5.7 l 0,9.8 -4.1,0 0,-9.5 c 0,-1.3 -0.3,-2.5 -1.5,-2.5 -0.7,0 -1.2,0.5 -1.5,1.4 -0.1,0.3 -0.2,0.8 -0.2,1.4 l 0,9.3 -4.1,0 0,-10.7 z"
         id="path3475"
         inkscape:connector-curvature="0" />
      <path
         d="m 323.9,110.2 c -0.4,0.2 -1.4,0.4 -2.6,0.4 -3.9,0 -6.4,-2.7 -6.4,-7.7 0,-4.7 2.8,-8 7,-8 1,0 1.8,0.2 2.2,0.4 l -0.5,3.2 c -0.3,-0.1 -0.8,-0.3 -1.5,-0.3 -2,0 -3.1,1.9 -3.1,4.5 0,2.8 1.2,4.4 3.1,4.4 0.6,0 1.1,-0.1 1.5,-0.3 l 0.3,3.4 z"
         id="path3477"
         inkscape:connector-curvature="0" />
      <path
         d="m 328.9,104.3 c 0.1,2.4 1.4,3.2 3.2,3.2 1.2,0 2.2,-0.2 2.9,-0.5 l 0.6,2.9 c -1.1,0.4 -2.6,0.7 -4.2,0.7 -4.1,0 -6.4,-2.7 -6.4,-7.5 0,-5.1 2.6,-8.2 6.1,-8.2 3.3,0 5.2,2.6 5.2,7.2 0,1.1 0,1.7 -0.1,2.1 l -7.3,0 z m 3.6,-2.9 c 0,-2 -0.5,-3.5 -1.7,-3.5 -1.3,0 -1.9,2 -1.9,3.5 l 3.6,0 z"
         id="path3479"
         inkscape:connector-curvature="0" />
      <path
         d="m 347.6,94 0,0 -3.5,1.8 -0.7,-3.2 4.6,-2.4 3.6,0 0,20.2 -4,0 0,-16.4 z"
         id="path3481"
         inkscape:connector-curvature="0" />
      <path
         d="m 357.6,107.3 c 0.8,0 1.2,0 1.9,-0.2 0.8,-0.2 1.7,-0.6 2.4,-1.2 0.9,-0.8 1.6,-2.3 2,-4.1 l -0.1,0 c -0.7,0.7 -1.6,1.2 -2.9,1.2 -2.6,0 -4.8,-2.3 -4.8,-6 0,-3.5 2.1,-7.1 6,-7.1 3.8,0 5.7,3.4 5.7,8.3 0,4.6 -1.5,7.8 -3.3,9.8 -1.2,1.3 -3,2.2 -5,2.6 -0.7,0.1 -1.3,0.1 -1.9,0.1 l 0,-3.4 z m 2.5,-10.6 c 0,2 0.7,3.6 1.9,3.6 0.7,0 1.3,-0.5 1.6,-1.1 0.2,-0.4 0.2,-0.8 0.2,-2.1 0,-2.7 -0.7,-4.2 -1.8,-4.2 -1.2,0 -1.9,1.3 -1.9,3.8 z"
         id="path3483"
         inkscape:connector-curvature="0" />
      <path
         d="m 375.9,110.4 0,-4.8 -6.9,0 0,-2.8 6.6,-12.6 3.9,0 0,12.1 2,0 0,3.3 -2,0 0,4.8 -3.6,0 z m 0,-8.1 0,-4.1 c 0,-1.1 0.1,-2.3 0.2,-3.3 l -0.1,0 c -0.5,1.1 -0.9,2 -1.4,3.1 l -2.2,4.3 0,0.1 3.5,0 z"
         id="path3485"
         inkscape:connector-curvature="0" />
      <path
         d="m 392.9,93.2 c -0.5,0 -1.1,0.1 -1.7,0.2 -2.7,0.6 -4,2.8 -4.5,5.4 l 0.1,0 c 0.7,-1 1.8,-1.6 3.1,-1.6 2.7,0 4.6,2.5 4.6,6.3 0,3.6 -1.8,7.2 -5.8,7.2 -3.8,0 -6.2,-3.3 -6.2,-8.3 0,-4.4 1.5,-7.4 3.3,-9.4 1.3,-1.5 3.3,-2.4 5,-2.7 1,-0.2 1.6,-0.2 2.1,-0.2 l 0,3.1 z m -2.4,10.3 c 0,-1.7 -0.6,-3.3 -1.9,-3.3 -0.7,0 -1.3,0.4 -1.7,1.4 -0.1,0.2 -0.2,0.8 -0.2,1.8 0,2.6 0.7,4.4 2,4.4 1.4,-0.1 1.8,-1.9 1.8,-4.3 z"
         id="path3487"
         inkscape:connector-curvature="0" />
    </g>
    <g
       id="g3489">
      <path
         d="m 403.8,27 c 0,2.5 -1.9,4.4 -4.5,4.4 -2.5,0 -4.5,-1.9 -4.5,-4.4 0,-2.4 2,-4.4 4.5,-4.4 2.5,0.1 4.5,2 4.5,4.4 z m -7.9,0 c 0,1.9 1.4,3.5 3.4,3.5 1.9,0 3.3,-1.5 3.3,-3.4 0,-1.9 -1.4,-3.5 -3.3,-3.5 -1.9,-0.1 -3.4,1.5 -3.4,3.4 z m 2.7,2.3 -1,0 0,-4.4 c 0.4,-0.1 1,-0.1 1.7,-0.1 0.8,0 1.2,0.1 1.5,0.3 0.2,0.2 0.4,0.5 0.4,1 0,0.5 -0.4,0.8 -0.9,1 l 0,0.1 c 0.4,0.2 0.7,0.5 0.8,1.1 0.1,0.7 0.2,0.9 0.3,1.1 l -1.1,0 c -0.1,-0.2 -0.2,-0.6 -0.3,-1.1 -0.1,-0.5 -0.3,-0.7 -0.9,-0.7 l -0.5,0 0,1.7 z m 0,-2.5 0.5,0 c 0.6,0 1,-0.2 1,-0.6 0,-0.4 -0.3,-0.7 -0.9,-0.7 -0.3,0 -0.5,0 -0.6,0.1 l 0,1.2 z"
         id="path3491"
         inkscape:connector-curvature="0" />
    </g>
  </g>
</svg>
